<svg id="Group_34" data-name="Group 34" xmlns="http://www.w3.org/2000/svg" xmlns:xlink="http://www.w3.org/1999/xlink" width="102.552" height="101.222" viewBox="0 0 102.552 101.222">
  <defs>
    <clipPath id="clip-path">
      <rect id="Rectangle_2" data-name="Rectangle 2" width="102.552" height="101.222" fill="none"/>
    </clipPath>
  </defs>
  <g id="Group_4" data-name="Group 4">
    <g id="Group_3" data-name="Group 3" clip-path="url(#clip-path)">
      <path id="Path_13" data-name="Path 13" d="M156.338,55.2l0,.013a13.412,13.412,0,0,1-9.267,9.854c-.429-.481-.291-1.073-.291-1.624q-.014-16.079-.008-32.157a13.287,13.287,0,0,0-10.927-12.959,22.661,22.661,0,0,0-4.095-.1,28.252,28.252,0,0,0-4.292.078,16.558,16.558,0,0,1-2.384-.2,5.824,5.824,0,0,0-1.693-.1q-24.539,0-49.078-.008a4.153,4.153,0,0,1-1.682-.132.742.742,0,0,1-.36-.674c-.067-2.959-.248-5.906.984-8.75a14.08,14.08,0,0,1,12.6-8.42q28.687-.017,57.373,0a13.98,13.98,0,0,1,12.913,8.977c.36.948.305,1.961.568,2.92V53.064a6.7,6.7,0,0,1-.354,2.132" transform="translate(-54.14 0)" fill="#1f63b2"/>
      <path id="Path_14" data-name="Path 14" d="M18.406,70.046q25.754.007,51.508.022c.416,0,.874-.157,1.247.182-.51.458-1.14.3-1.723.3q-19.126.014-38.253.007-4.606,0-9.213,0A13.133,13.133,0,0,0,9.354,81.115,15.146,15.146,0,0,0,9.118,83.8q.011,19.139.006,38.278A13.215,13.215,0,0,0,18.971,134.8c.466.123,1.111,0,1.284.7-3.382-.049-6.813.5-10.128-.423-5.415-1.507-8.692-5.12-9.92-10.588v-.005A6.8,6.8,0,0,1,0,122.955v-41.3c.413-4.445,2.93-7.519,6.522-9.854a13.855,13.855,0,0,1,6.941-2c1.331-.075,2.669-.021,4-.012a1.255,1.255,0,0,1,.94.255" transform="translate(0 -52.308)" fill="#2b77d0"/>
      <path id="Path_15" data-name="Path 15" d="M46.665,136.915c-.991-.453-2.089-.554-3.093-1a13.618,13.618,0,0,1-8.138-9.814,10.736,10.736,0,0,1-.21-2.473c.006-12.962-.013-25.924.016-38.886a12.508,12.508,0,0,1,3.617-8.806A13.478,13.478,0,0,1,46.5,71.768a7.43,7.43,0,0,1,1.291-.086q24.889-.011,49.779-.012a9.826,9.826,0,0,1,2.212.192,7.57,7.57,0,0,1,4.972,1.768,13.347,13.347,0,0,1,6.137,11.483q.006,16.327,0,32.655a2.711,2.711,0,0,1-.273,1.741c-.059,2.386.227,4.785-.373,7.149a13.493,13.493,0,0,1-12.735,10.249,5.023,5.023,0,0,0-3.993,1.9,69.382,69.382,0,0,1-10.985,10.58c-.182.142-.383.26-.575.39-.267-.405-.04-.774.11-1.13a58.777,58.777,0,0,0,2.8-8.523,2.153,2.153,0,0,0-2.146-2.93c-1.831-.069-3.665-.023-5.5-.017a14.726,14.726,0,0,1-2.289-.132c-.529-.04-1.058-.115-1.586-.115q-13.041.01-26.083.034c-.2,0-.4-.031-.6-.047" transform="translate(-26.41 -53.728)" fill="#3685e3"/>
      <path id="Path_16" data-name="Path 16" d="M304.077,119.408q-.007-17.246-.005-34.492a13.146,13.146,0,0,0-3.9-9.432,12.8,12.8,0,0,0-6.929-3.722c.024-.024.048-.067.072-.068,4.091-.04,8.249-.8,12.131,1.269a13.528,13.528,0,0,1,7.235,9.717,11.9,11.9,0,0,1,.191,2.374q-.005,16.839-.005,33.677a10.4,10.4,0,0,1-3.6.637c-1.729.038-3.459.029-5.188.04" transform="translate(-219.872 -53.628)" fill="#15549e"/>
      <path id="Path_17" data-name="Path 17" d="M184.757,332.508c.222-.207.5-.149.761-.149,2.333,0,4.667-.013,7,0,1.976.013,2.936,1.451,2.448,3.364a81.389,81.389,0,0,1-3.186,9.515,49.933,49.933,0,0,1-7.04,4.9,1.877,1.877,0,0,1-2.388-.372,2.015,2.015,0,0,1-.4-2.477,58.663,58.663,0,0,0,3.079-7.664q.608-1.946,1.111-3.923c.422-1.653.11-2.324-1.389-3.194" transform="translate(-136.238 -249.193)" fill="#2b77d0"/>
    </g>
  </g>
  <text id="SMS" transform="translate(18.473 46.759)" fill="#fff" font-size="28" font-family="Quicksand-Bold, Quicksand" font-weight="700"><tspan x="0" y="0" letter-spacing="-0.049em">SM</tspan><tspan y="0">S</tspan></text>
  <text id="FRL" transform="translate(21.448 71.037)" fill="#fff" font-size="28" font-family="Quicksand-Bold, Quicksand" font-weight="700"><tspan x="0" y="0" letter-spacing="-0.049em">F</tspan><tspan y="0" letter-spacing="-0.05em">R</tspan><tspan y="0">L</tspan></text>
</svg>
