<svg xmlns="http://www.w3.org/2000/svg" xmlns:xlink="http://www.w3.org/1999/xlink" width="177.26" height="56.744" viewBox="0 0 177.26 56.744">
  <defs>
    <clipPath id="clip-path">
      <rect id="Rectangle_1" data-name="Rectangle 1" width="177.26" height="56.744" transform="translate(-42)" fill="#fff"/>
    </clipPath>
  </defs>
  <g id="Group_1" data-name="Group 1" transform="translate(42)" clip-path="url(#clip-path)">
    <path id="Path_1" data-name="Path 1" d="M9.514,209.43a15.439,15.439,0,0,1-4.611-.64,11.032,11.032,0,0,1-3.915-2.25,2.878,2.878,0,0,1-.732-.915A2.271,2.271,0,0,1,0,204.6a2.1,2.1,0,0,1,.6-1.482,2,2,0,0,1,1.519-.64,1.94,1.94,0,0,1,1.244.439,11.611,11.611,0,0,0,2.763,1.72,8.63,8.63,0,0,0,3.385.585A7.1,7.1,0,0,0,12,204.8a4.872,4.872,0,0,0,1.83-1.134,2.272,2.272,0,0,0,.7-1.628,2.77,2.77,0,0,0-.659-1.866,5.006,5.006,0,0,0-2.013-1.3,15.516,15.516,0,0,0-3.44-.823,15.348,15.348,0,0,1-3.476-.9,8.067,8.067,0,0,1-2.507-1.537,6.069,6.069,0,0,1-1.519-2.2A7.475,7.475,0,0,1,.4,190.584a6.71,6.71,0,0,1,1.226-4.062,7.68,7.68,0,0,1,3.312-2.561,11.765,11.765,0,0,1,4.611-.878,13.218,13.218,0,0,1,4.41.713,10.273,10.273,0,0,1,3.312,1.811,2.443,2.443,0,0,1,1.061,1.939,2.085,2.085,0,0,1-.622,1.464,1.951,1.951,0,0,1-1.464.659,1.605,1.605,0,0,1-.988-.329,6.631,6.631,0,0,0-1.574-.97A14.161,14.161,0,0,0,11.6,187.6a7.56,7.56,0,0,0-2.049-.311,7.64,7.64,0,0,0-2.653.4,3.631,3.631,0,0,0-1.628,1.1,2.525,2.525,0,0,0-.549,1.61,2.609,2.609,0,0,0,.64,1.811,4.343,4.343,0,0,0,1.848,1.134,21.294,21.294,0,0,0,2.891.75,29.389,29.389,0,0,1,3.861.951,9.039,9.039,0,0,1,2.763,1.409,5.336,5.336,0,0,1,1.647,2.159,8.131,8.131,0,0,1,.549,3.165,6.542,6.542,0,0,1-1.317,4.1,8.429,8.429,0,0,1-3.458,2.635,11.662,11.662,0,0,1-4.629.915" transform="translate(0 -159.685)" fill="#fff"/>
    <path id="Path_2" data-name="Path 2" d="M168.968,185.527a2.489,2.489,0,0,1,1.082.275,2.109,2.109,0,0,1,.862.715l8.913,13.717-1.834-.073,9.133-13.644a2.113,2.113,0,0,1,1.8-.99,2.3,2.3,0,0,1,1.577.624,2.067,2.067,0,0,1,.7,1.614v21.192a2.174,2.174,0,0,1-2.282,2.245,2.264,2.264,0,0,1-1.675-.644,2.172,2.172,0,0,1-.644-1.6V191.721l1.429.33-7.475,11.4a3.07,3.07,0,0,1-.825.7,1.7,1.7,0,0,1-1.008.257,1.636,1.636,0,0,1-.971-.257,3.069,3.069,0,0,1-.824-.7l-7-11.066.953-1.942v18.523a2.276,2.276,0,0,1-.587,1.6,1.989,1.989,0,0,1-1.54.642,1.945,1.945,0,0,1-1.5-.642,2.273,2.273,0,0,1-.587-1.6v-21.2a2.123,2.123,0,0,1,.679-1.577,2.255,2.255,0,0,1,1.632-.66" transform="translate(-145.359 -161.817)" fill="#fff"/>
    <path id="Path_3" data-name="Path 3" d="M386.321,209.43a15.439,15.439,0,0,1-4.611-.64,11.032,11.032,0,0,1-3.915-2.25,2.878,2.878,0,0,1-.732-.915,2.271,2.271,0,0,1-.256-1.025,2.1,2.1,0,0,1,.6-1.482,2,2,0,0,1,1.519-.64,1.94,1.94,0,0,1,1.244.439,11.611,11.611,0,0,0,2.763,1.72,8.631,8.631,0,0,0,3.385.585,7.1,7.1,0,0,0,2.488-.421,4.87,4.87,0,0,0,1.83-1.134,2.271,2.271,0,0,0,.7-1.628,2.77,2.77,0,0,0-.659-1.866,5.005,5.005,0,0,0-2.013-1.3,15.516,15.516,0,0,0-3.44-.823,15.348,15.348,0,0,1-3.476-.9,8.067,8.067,0,0,1-2.507-1.537,6.069,6.069,0,0,1-1.519-2.2,7.475,7.475,0,0,1-.512-2.836,6.71,6.71,0,0,1,1.226-4.062,7.68,7.68,0,0,1,3.312-2.561,11.765,11.765,0,0,1,4.611-.878,13.218,13.218,0,0,1,4.41.713,10.273,10.273,0,0,1,3.312,1.811,2.443,2.443,0,0,1,1.061,1.939,2.085,2.085,0,0,1-.622,1.464,1.951,1.951,0,0,1-1.464.659,1.606,1.606,0,0,1-.988-.329,6.63,6.63,0,0,0-1.573-.97,14.162,14.162,0,0,0-2.086-.768,7.56,7.56,0,0,0-2.049-.311,7.64,7.64,0,0,0-2.653.4,3.631,3.631,0,0,0-1.628,1.1,2.525,2.525,0,0,0-.549,1.61,2.609,2.609,0,0,0,.64,1.811,4.343,4.343,0,0,0,1.848,1.134,21.294,21.294,0,0,0,2.891.75,29.383,29.383,0,0,1,3.861.951,9.039,9.039,0,0,1,2.763,1.409,5.336,5.336,0,0,1,1.647,2.159,8.131,8.131,0,0,1,.549,3.165,6.542,6.542,0,0,1-1.317,4.1,8.428,8.428,0,0,1-3.458,2.635,11.663,11.663,0,0,1-4.629.915" transform="translate(-328.652 -159.685)" fill="#fff"/>
    <path id="Path_4" data-name="Path 4" d="M540.848,351.513a1.973,1.973,0,0,1-2.191-2.183v-.618a1.973,1.973,0,0,1,2.191-2.183h.475a1.973,1.973,0,0,1,2.191,2.183v.618a1.973,1.973,0,0,1-2.191,2.183Z" transform="translate(-469.818 -302.244)" fill="#fff"/>
    <path id="Path_5" data-name="Path 5" d="M602.977,211.263a2.268,2.268,0,0,1-1.675-.642,2.159,2.159,0,0,1-.644-1.6v-21.26a2.2,2.2,0,0,1,2.245-2.237h11.962a2.249,2.249,0,0,1,1.6.605,2.044,2.044,0,0,1,.644,1.559,1.939,1.939,0,0,1-.644,1.43,2.211,2.211,0,0,1-1.6.623h-9.937l.331-.44v7.434l-.258-.477h8.208a2.249,2.249,0,0,1,1.6.605,2.044,2.044,0,0,1,.644,1.558,1.939,1.939,0,0,1-.644,1.43,2.211,2.211,0,0,1-1.6.623h-8.281l.331-.33v8.875a2.1,2.1,0,0,1-.681,1.6,2.258,2.258,0,0,1-1.6.642" transform="translate(-523.896 -161.819)" fill="#fff"/>
    <path id="Path_6" data-name="Path 6" d="M749.308,212.06a2.891,2.891,0,0,1-1.84-.638,1.945,1.945,0,0,1-.81-1.587V188.754a2.144,2.144,0,0,1,.644-1.587,2.184,2.184,0,0,1,1.6-.638h10.6a6.869,6.869,0,0,1,3.589,1A7.663,7.663,0,0,1,765.8,190.3a7.935,7.935,0,0,1,1.031,4.067,6.711,6.711,0,0,1-.57,2.7,8.441,8.441,0,0,1-1.546,2.371,7.213,7.213,0,0,1-2.19,1.641l.037-.839a6.264,6.264,0,0,1,1.711,1.295,6.132,6.132,0,0,1,1.067,1.6,5.445,5.445,0,0,1,.46,1.842q.146.912.2,1.6a4.709,4.709,0,0,0,.221,1.167,1.292,1.292,0,0,0,.644.729,2.058,2.058,0,0,1,1.012,1.368,1.69,1.69,0,0,1-.423,1.586,1.783,1.783,0,0,1-1.031.6,3.1,3.1,0,0,1-1.251,0,3.747,3.747,0,0,1-1.031-.346,5.172,5.172,0,0,1-1.251-1.076,5.33,5.33,0,0,1-1.012-1.915,10.356,10.356,0,0,1-.386-3.1,2.952,2.952,0,0,0-.221-1.149,2.543,2.543,0,0,0-1.656-1.5,4.854,4.854,0,0,0-1.472-.2h-7.435l.552-.839v7.914a2.444,2.444,0,0,1-.515,1.587,1.742,1.742,0,0,1-1.435.638m1.438-13.135h8.527a1.845,1.845,0,0,0,1.281-.6,4.534,4.534,0,0,0,1.025-1.647,6.3,6.3,0,0,0,.4-2.287,4.183,4.183,0,0,0-.86-2.69,2.4,2.4,0,0,0-1.848-1.08H750.82l.439-1.171V199.8Z" transform="translate(-651.237 -162.691)" fill="#fff"/>
    <path id="Path_7" data-name="Path 7" d="M943.864,204.76a2.233,2.233,0,0,1,1.6.613,2.083,2.083,0,0,1,.644,1.578,2.039,2.039,0,0,1-.644,1.541,2.234,2.234,0,0,1-1.6.613H931.9a2.162,2.162,0,0,1-1.6-.65,2.2,2.2,0,0,1-.644-1.616V185.374a2.173,2.173,0,0,1,.663-1.615,2.318,2.318,0,0,1,1.693-.65,2.2,2.2,0,0,1,1.564.65,2.144,2.144,0,0,1,.681,1.615v20.017l-.81-.631Z" transform="translate(-810.849 -159.708)" fill="#fff"/>
    <path id="Union_4" data-name="Union 4" d="M-79.914,50.347a.527.527,0,0,1-.1-.649,15.365,15.365,0,0,0,.806-2.009c.106-.339.2-.683.292-1.028a.613.613,0,0,0-.363-.837h0c-.139-.011-.277-.031-.416-.031q-3.417,0-6.836.01c-.052,0-.1-.009-.157-.013-.256,0-.513.005-.77.014a6.1,6.1,0,0,1-1.884-.126,3.473,3.473,0,0,1-2.6-2.775h0A2.7,2.7,0,0,1-92,42.327V31.891a2.8,2.8,0,0,1,.043-.52A3.455,3.455,0,0,1-90.291,29.1a3.63,3.63,0,0,1,1.819-.525c.349-.02.7-.005,1.049,0a.688.688,0,0,1,.122.007l.085.013a.251.251,0,0,1-.018-.09,5.264,5.264,0,0,1,.258-2.293A3.689,3.689,0,0,1-83.674,24q7.518,0,15.036,0a3.664,3.664,0,0,1,3.384,2.353c.094.248.08.515.149.765V37.574a3.578,3.578,0,0,1-.094.892v0a3.518,3.518,0,0,1-2.428,2.583,2.737,2.737,0,0,1-.945.167c-.453.009-.906.007-1.36.01a8.274,8.274,0,0,1-.1,1.874,3.536,3.536,0,0,1-3.337,2.686,1.318,1.318,0,0,0-1.047.5,18.207,18.207,0,0,1-2.879,2.773c-.047.037-.1.068-.15.1h0a13.1,13.1,0,0,1-1.845,1.284.487.487,0,0,1-.25.072A.541.541,0,0,1-79.914,50.347Z" transform="translate(57.753 0)" fill="#fff" stroke="rgba(0,0,0,0)" stroke-miterlimit="10" stroke-width="1"/>
  </g>
</svg>
