<svg xmlns="http://www.w3.org/2000/svg" width="44.31" height="31.579" viewBox="0 0 44.31 31.579">
  <g id="Group_20" data-name="Group 20" transform="translate(296.888 -1032.5)">
    <path id="Path_19" data-name="Path 19" d="M794.667,102.435V83.4H838.96c.008.119.016.189.016.258q0,9.17,0,18.34a3.811,3.811,0,0,1-.815,2.41,4.048,4.048,0,0,1-3.41,1.53q-17.929-.012-35.859,0h-.216a3.689,3.689,0,0,1-3.225-1.612,10.006,10.006,0,0,1-.78-1.883M811.1,95.092c.007.1.018.187.019.269,0,.721-.019,1.443.011,2.162a1.276,1.276,0,0,0,1.341,1.286,1.263,1.263,0,0,0,1.241-1.333c.008-1.946.025-3.892-.011-5.838a4.19,4.19,0,0,0-8.375.239c-.026,1.83-.008,3.661,0,5.492a1.96,1.96,0,0,0,.078.553,1.285,1.285,0,0,0,2.5-.292c.016-.23.009-.461.009-.692,0-.614,0-1.229,0-1.848Zm7.015-.023c.676,0,1.307.01,1.937,0a3.723,3.723,0,0,0,3.493-2.12,3.665,3.665,0,0,0-2.848-5.22c-1.29-.1-2.591-.078-3.887-.063a1.273,1.273,0,0,0-1.288,1.344c-.011.547,0,1.1,0,1.643,0,2.249,0,4.5,0,6.746a1.3,1.3,0,1,0,2.591.079c.012-.788,0-1.577,0-2.407m7.6-1.851c0,1.37,0,2.74,0,4.109a2.066,2.066,0,0,0,.066.6,1.272,1.272,0,0,0,1.458.872,1.329,1.329,0,0,0,1.067-1.424q.008-4.131,0-8.262a1.334,1.334,0,0,0-1.324-1.453,1.313,1.313,0,0,0-1.268,1.452c0,1.37,0,2.74,0,4.109" transform="translate(-1091.555 958.143)" fill="#fff"/>
    <path id="Path_20" data-name="Path 20" d="M794.667,3.5a4.556,4.556,0,0,1,.786-1.931A4.054,4.054,0,0,1,798.888,0c4.974.013,9.948,0,14.922,0q10.467,0,20.934,0a4.183,4.183,0,0,1,2.677.8,3.626,3.626,0,0,1,1.508,2.707c.058.959.012,1.923.012,2.936H794.667Z" transform="translate(-1091.555 1032.5)" fill="#fff"/>
    <path id="Path_21" data-name="Path 21" d="M920.115,148.836h-3.147a1.822,1.822,0,0,1,.615-1.86,1.5,1.5,0,0,1,1.739-.121,1.77,1.77,0,0,1,.793,1.981" transform="translate(-1200.572 901.76)" fill="#fff"/>
    <path id="Path_22" data-name="Path 22" d="M1011.19,148.964v-2.18c.77,0,1.529-.044,2.279.015a1.06,1.06,0,0,1,.906,1.093,1.1,1.1,0,0,1-1,1.062c-.713.041-1.43.01-2.184.01" transform="translate(-1284.61 901.639)" fill="#fff"/>
  </g>
</svg>
