<svg xmlns="http://www.w3.org/2000/svg" width="44.803" height="39.218" viewBox="0 0 44.803 39.218">
  <g id="Group_13" data-name="Group 13" transform="translate(188.869 -1045.224)">
    <path id="Path_24" data-name="Path 24" d="M1824.912,192.7a9.5,9.5,0,0,1-.963,1.093q-3.9,3.286-7.827,6.534a1.394,1.394,0,0,1-1.84.141,1.454,1.454,0,0,1-.576-1.26q0-1.795,0-3.589v-.467c-.724,0-1.405,0-2.087,0a11.083,11.083,0,0,1-9.889-5.481q-4.386-6.98-8.736-13.983a5.8,5.8,0,0,0-5.34-2.956c-2.348.029-4.7.006-7.046.006h-.494v-5.6h.453c2.407,0,4.814-.007,7.221,0a11.058,11.058,0,0,1,9.885,5.484q4.361,6.944,8.686,13.911a5.83,5.83,0,0,0,5.437,3.02c.612-.016,1.225,0,1.91,0v-.47c0-1.167.007-2.335,0-3.5a1.466,1.466,0,0,1,.8-1.482,1.437,1.437,0,0,1,1.653.3c2.71,2.262,5.427,4.516,8.128,6.788a4.671,4.671,0,0,1,.624.816Z" transform="translate(-1968.979 883.692)" fill="#fff"/>
    <path id="Path_25" data-name="Path 25" d="M1998.067,124.823a9.524,9.524,0,0,1-.962,1.093c-2.564,2.163-5.148,4.3-7.722,6.452a1.669,1.669,0,0,1-1.308.491,1.4,1.4,0,0,1-1.21-1.483c-.011-1.2,0-2.392,0-3.589v-.6a32.6,32.6,0,0,0-3.813.312,5.156,5.156,0,0,0-3.364,2.536q-.81,1.3-1.622,2.6c-.075.12-.159.234-.263.387-.867-1.386-1.71-2.731-2.549-4.078-.245-.394-.676-.8-.662-1.194.014-.416.434-.831.711-1.222a10.981,10.981,0,0,1,8.868-4.839c.873-.04,1.749-.006,2.694-.006V121.2c0-1.167.007-2.334,0-3.5a1.463,1.463,0,0,1,.805-1.48,1.437,1.437,0,0,1,1.652.3c2.71,2.261,5.426,4.515,8.126,6.787a4.67,4.67,0,0,1,.624.816Z" transform="translate(-2142.133 929.153)" fill="#fff"/>
    <path id="Path_26" data-name="Path 26" d="M1780.062,330.613v-5.589h.483q3.609,0,7.217,0a5.645,5.645,0,0,0,5.1-2.823c.6-.962,1.2-1.923,1.823-2.915.086.116.15.191.2.274.98,1.569,1.964,3.137,2.93,4.714a.575.575,0,0,1,.036.487,11.033,11.033,0,0,1-6.907,5.451,11.854,11.854,0,0,1-2.757.393c-2.623.053-5.249.02-7.873.021-.071,0-.142-.008-.253-.014" transform="translate(-1968.931 748.213)" fill="#fff"/>
  </g>
</svg>
