<svg xmlns="http://www.w3.org/2000/svg" width="48.873" height="42.61" viewBox="0 0 48.873 42.61">
  <path id="Path_23" data-name="Path 23" d="M0,313.907v-12.6c.073-.4.136-.81.221-1.212a10.641,10.641,0,0,1,10.445-8.554c9.177.024,18.353.009,27.53.005a10.008,10.008,0,0,1,5.363,1.432,10.6,10.6,0,0,1,5.293,9.442c.039,3.387.012,6.775,0,10.162a11.32,11.32,0,0,1-.09,1.617,10.464,10.464,0,0,1-7.4,9,.579.579,0,0,0-.474.667c.015,3.228.009,6.457.009,9.685v.6c-.211-.165-.334-.257-.454-.355q-5.975-4.9-11.944-9.808a1.372,1.372,0,0,0-.948-.328q-8.3.014-16.6,0a10.739,10.739,0,0,1-1.525-.052,10.374,10.374,0,0,1-8.749-7A22.38,22.38,0,0,1,0,313.907m31.52-1.93c.009-.163.024-.3.025-.443,0-1.622.014-3.244-.006-4.866a9.506,9.506,0,0,0-.159-1.7,3.151,3.151,0,0,0-5.2-1.948c-.323.246-.6.551-.92.85a2.741,2.741,0,0,0-2.676-1.582,3.355,3.355,0,0,0-2.845,1.539l-.175-1.3H17.168v9.452h2.874v-.536c0-1.638-.017-3.276.013-4.913a2.756,2.756,0,0,1,.286-1.133,1.343,1.343,0,0,1,1.433-.723,1.325,1.325,0,0,1,1.033,1.172,7.783,7.783,0,0,1,.092,1.139c.01,1.495,0,2.99,0,4.484v.5h2.874c0-1.768,0-3.5,0-5.231a4.141,4.141,0,0,1,.089-.9,1.468,1.468,0,0,1,1.425-1.181,1.291,1.291,0,0,1,1.248,1.164,3.9,3.9,0,0,1,.1.849c.012,1.431.009,2.862.012,4.293,0,.33,0,.66,0,1.014Zm2.353-2.543c-.164.655-.332,1.266-.455,1.886-.02.1.138.31.257.355a6.691,6.691,0,0,0,5.153.042,2.66,2.66,0,0,0,1.7-2.441,2.542,2.542,0,0,0-1.309-2.477c-.5-.3-1.064-.489-1.6-.735a5.594,5.594,0,0,1-.892-.442.633.633,0,0,1,.121-1.143,1.655,1.655,0,0,1,.832-.123c.646.095,1.282.259,1.949.4.126-.485.238-1.014.4-1.524.116-.353-.019-.485-.328-.583a6.476,6.476,0,0,0-3.756-.156,3.086,3.086,0,0,0-2.353,2.588,2.673,2.673,0,0,0,1.8,2.794c.54.266,1.117.453,1.668.7.367.163.668.415.587.873-.084.473-.453.61-.877.654a5.423,5.423,0,0,1-2.91-.665m-18.91-6.612a6.105,6.105,0,0,0-4.343-.264,2.9,2.9,0,0,0-2.2,2.75,2.689,2.689,0,0,0,1.844,2.582c.5.242,1.032.408,1.54.632.56.247.773.554.677.958-.118.5-.519.59-.951.626a5.505,5.505,0,0,1-2.83-.669l-.527,2.124a6.825,6.825,0,0,0,5.619.089,2.782,2.782,0,0,0,.053-4.982c-.487-.261-1.019-.439-1.526-.664a4.071,4.071,0,0,1-.761-.385.631.631,0,0,1,.13-1.141,1.661,1.661,0,0,1,.832-.123c.647.1,1.284.26,1.948.4l.492-1.935" transform="translate(0 -291.545)" fill="#fff"/>
</svg>
