<svg id="Group_33" data-name="Group 33" xmlns="http://www.w3.org/2000/svg" xmlns:xlink="http://www.w3.org/1999/xlink" width="568.631" height="328.108" viewBox="0 0 568.631 328.108">
  <defs>
    <clipPath id="clip-path">
      <rect id="Rectangle_48" data-name="Rectangle 48" width="568.631" height="328.108" fill="none"/>
    </clipPath>
  </defs>
  <g id="Group_32" data-name="Group 32" clip-path="url(#clip-path)">
    <path id="Path_220" data-name="Path 220" d="M140,114.326a1,1,0,0,1-1-1V99.185a1,1,0,1,1,2,0v14.141a1,1,0,0,1-1,1" transform="translate(-46.392 -32.771)" fill="#012258"/>
    <path id="Path_221" data-name="Path 221" d="M143.524,110.8H129.383a1,1,0,0,1,0-2h14.141a1,1,0,1,1,0,2" transform="translate(-42.85 -36.313)" fill="#012258"/>
    <path id="Path_222" data-name="Path 222" d="M762.767,198.458a1,1,0,0,1-1-1V183.317a1,1,0,1,1,2,0v14.141a1,1,0,0,1-1,1" transform="translate(-254.25 -60.851)" fill="#012258"/>
    <path id="Path_223" data-name="Path 223" d="M765.812,196.71a.993.993,0,0,1-.5-.137L753.1,189.434a1,1,0,1,1,1.009-1.726l12.207,7.139a1,1,0,0,1-.505,1.862" transform="translate(-251.192 -62.605)" fill="#012258"/>
    <path id="Path_224" data-name="Path 224" d="M753.475,196.633a1,1,0,0,1-.484-1.875l12.383-6.83a1,1,0,0,1,.966,1.75l-12.383,6.83a1,1,0,0,1-.482.125" transform="translate(-251.148 -62.682)" fill="#012258"/>
    <path id="Path_225" data-name="Path 225" d="M807.611,405.394a6.454,6.454,0,1,0-6.454,6.454,6.454,6.454,0,0,0,6.454-6.454" transform="translate(-265.242 -133.151)" fill="#3685e3"/>
    <path id="Path_226" data-name="Path 226" d="M72.081,274.02a6.457,6.457,0,1,0-5.271,5.271,6.462,6.462,0,0,0,5.271-5.271" transform="translate(-19.78 -88.939)" fill="#012258"/>
    <rect id="Rectangle_40" data-name="Rectangle 40" width="568.631" height="1.999" transform="translate(0 325.851)" fill="#012258"/>
    <path id="Path_227" data-name="Path 227" d="M544.5,448.948a.779.779,0,0,0,.7-.508l28.032-67.395c2.64-6.347,8.315-10.447,14.46-10.447h9.662c6.254,0,11.973,4.206,14.569,10.715l26.584,66.668a.744.744,0,0,0,1.032.441.949.949,0,0,0,.386-1.181L613.34,380.575c-2.848-7.142-9.123-11.758-15.986-11.758h-9.662c-6.742,0-12.97,4.5-15.867,11.463l-28.032,67.394a.951.951,0,0,0,.369,1.188.69.69,0,0,0,.334.087" transform="translate(-181.473 -123.097)" fill="#3685e3"/>
    <path id="Path_228" data-name="Path 228" d="M463.822,448.855a.779.779,0,0,0,.7-.508l28.032-67.395c2.64-6.347,8.315-10.447,14.459-10.447h9.663c6.254,0,11.972,4.205,14.569,10.714l26.584,66.667a.744.744,0,0,0,1.032.441.947.947,0,0,0,.386-1.181l-26.585-66.667c-2.848-7.143-9.123-11.757-15.986-11.757h-9.663c-6.742,0-12.97,4.5-15.866,11.463l-28.032,67.394a.952.952,0,0,0,.369,1.188.689.689,0,0,0,.334.087" transform="translate(-154.547 -123.066)" fill="#3685e3"/>
    <path id="Path_229" data-name="Path 229" d="M501.851,396.679h99a.9.9,0,0,0,0-1.782h-99a.9.9,0,0,0,0,1.782" transform="translate(-167.239 -131.802)" fill="#3685e3"/>
    <rect id="Rectangle_41" data-name="Rectangle 41" width="27.21" height="1.406" transform="matrix(0.171, -0.985, 0.985, 0.171, 369.552, 227.817)" fill="#fff"/>
    <path id="Path_230" data-name="Path 230" d="M596.051,293.009v35.279a17,17,0,0,1-13.4,6.543H501.907a16.975,16.975,0,0,1-16.974-16.982,24.839,24.839,0,0,1,24.833-24.841Z" transform="translate(-161.853 -97.796)" fill="#012258"/>
    <path id="Path_231" data-name="Path 231" d="M581.76,335.721H501.018a18.749,18.749,0,0,1-18.751-18.757,26.611,26.611,0,0,1,26.608-26.621H596.94v37.67l-.377.483a18.678,18.678,0,0,1-14.8,7.226m-72.886-43.38a24.612,24.612,0,0,0-24.609,24.623,16.735,16.735,0,0,0,.125,2.046v0a16.753,16.753,0,0,0,16.627,14.711H581.76a16.69,16.69,0,0,0,13.182-6.4V292.341Z" transform="translate(-160.963 -96.905)" fill="#012258"/>
    <path id="Path_232" data-name="Path 232" d="M632.1,250.389l-2.368,9.862-2.111,8.794L620.7,297.9a16.989,16.989,0,0,1-16.506,12.97H549.484l12.393-71.516c1.831-10.57,9.534-18.142,18.454-18.142H614c12.557,0,21.6,14.582,18.1,29.18" transform="translate(-183.397 -73.831)" fill="#012258"/>
    <path id="Path_233" data-name="Path 233" d="M603.139,311.755H546.313l12.754-73.6c1.967-11.367,10.466-19.617,20.206-19.617h33.667c5.757,0,11.088,2.74,15.011,7.714a27.907,27.907,0,0,1,4.821,23.659l-11.4,47.513a18.724,18.724,0,0,1-18.236,14.33m-54.452-2h54.452a16.729,16.729,0,0,0,16.293-12.8l11.4-47.509a25.891,25.891,0,0,0-4.446-21.956c-3.536-4.483-8.309-6.952-13.441-6.952H579.272c-8.765,0-16.435,7.553-18.237,17.959h0Z" transform="translate(-182.339 -72.941)" fill="#012258"/>
    <path id="Path_234" data-name="Path 234" d="M485.871,331.271c1.043,8.205,8.361,14.564,17.246,14.564h39.162l.4-14.667H485.964Z" transform="translate(-162.166 -110.532)" fill="#012258"/>
    <path id="Path_235" data-name="Path 235" d="M418.581,462.7c-7.956,4.249-5.468,13.715,1.706,13.78l42.846.234-.087-24.608s-16.114-.264-17.153-.156c0,0-22.16,8-27.312,10.749" transform="translate(-138.062 -150.837)" fill="#3685e3"/>
    <path id="Path_236" data-name="Path 236" d="M476.1,463c-7.964,4.233-5.5,13.7,1.678,13.784l42.844.32-.037-24.608s-16.113-.3-17.152-.191c0,0-22.176,7.953-27.333,10.694" transform="translate(-157.254 -150.957)" fill="#3685e3"/>
    <path id="Path_237" data-name="Path 237" d="M456.757,397.926s26.957,1.169,25.751.82l7.007-64.683,42.49-1.442a15.748,15.748,0,0,0,16.156-15.173c.016-.464.01-.937-.012-1.411a35.826,35.826,0,0,0-1.227-7.538q-.671-2.414-1.328-4.82a17.911,17.911,0,0,0-20.824-12.814q-9.446,1.916-18.93,3.867c-8.578,1.763-30.9,6.433-33.58,7-.059.013-1.335.314-3.253.778-10.428,2.524-12.541,12.84-12.9,23.617-.647,19.653-.3,71.85.645,71.8" transform="translate(-152.123 -96.96)" fill="#fff"/>
    <path id="Path_238" data-name="Path 238" d="M481.231,399.313h-.31c-.714,0-1.73-.026-2.949-.059-2.145-.059-5.13-.16-8.874-.3-6.11-.232-12.216-.495-12.832-.522l-.39.023-.342-.319c-.388-.379-.976-.951-1.2-29.636-.129-16.682-.017-33.921.278-42.9.328-9.972,2.179-21.776,13.661-24.555,1.858-.45,3.2-.765,3.281-.784,2.536-.539,24.943-5.228,33.586-7q9.481-1.949,18.932-3.868a18.971,18.971,0,0,1,21.986,13.527l.349,1.269q.486,1.77.978,3.548a36.988,36.988,0,0,1,1.262,7.752c.025.544.029,1.033.013,1.5a16.772,16.772,0,0,1-17.182,16.136l-41.563,1.414-6.824,62.987.046.013-.1.9c-.133.815-.762.882-1.8.882m-24.2-2.852c8.648.372,20.835.849,24.068.856l7.011-64.721,43.357-1.472a14.8,14.8,0,0,0,15.191-14.209c.015-.414.011-.849-.011-1.33a34.9,34.9,0,0,0-1.192-7.32c-.33-1.183-.655-2.369-.98-3.552l-.348-1.267a16.968,16.968,0,0,0-19.662-12.1q-9.444,1.915-18.927,3.868c-8.64,1.775-31.037,6.462-33.574,7-.1.022-1.354.318-3.225.772-10.113,2.448-11.808,12.838-12.134,22.679-.612,18.569-.305,64.755.425,70.8m-.749-.032h0" transform="translate(-151.622 -96.462)" fill="#012258"/>
    <path id="Path_239" data-name="Path 239" d="M505.289,400.428s26.957,1.169,25.751.82l7.008-64.683,42.49-1.442a15.748,15.748,0,0,0,16.156-15.173c.016-.464.01-.937-.012-1.411A35.814,35.814,0,0,0,595.456,311q-.671-2.414-1.328-4.82A17.911,17.911,0,0,0,573.3,293.368q-9.446,1.916-18.93,3.868c-8.578,1.762-30.9,6.433-33.58,7-.059.013-1.335.314-3.253.778-10.428,2.524-12.541,12.84-12.9,23.617-.647,19.653-.3,71.85.645,71.8" transform="translate(-168.321 -97.796)" fill="#fff"/>
    <path id="Path_240" data-name="Path 240" d="M529.763,401.815h-.31c-.714,0-1.73-.026-2.949-.059-2.145-.059-5.13-.16-8.874-.3-6.111-.232-12.216-.495-12.832-.522l-.39.023-.342-.319c-.388-.379-.976-.951-1.2-29.636-.129-16.682-.017-33.921.278-42.9.328-9.972,2.177-21.776,13.66-24.555,1.86-.45,3.2-.766,3.282-.784,2.54-.54,24.95-5.23,33.585-7q9.482-1.949,18.932-3.868a18.969,18.969,0,0,1,21.986,13.527l.354,1.29q.484,1.761.973,3.527a36.984,36.984,0,0,1,1.262,7.751c.025.546.029,1.033.013,1.5a16.771,16.771,0,0,1-17.182,16.138l-41.563,1.414-6.824,62.987.046.013-.1.9c-.134.815-.762.882-1.8.882m-24.2-2.852c8.649.372,20.835.849,24.068.856l7.012-64.722L580,333.626A14.808,14.808,0,0,0,595.2,319.417c.014-.412.01-.848-.011-1.331a34.943,34.943,0,0,0-1.192-7.318q-.492-1.765-.974-3.53l-.354-1.289A16.973,16.973,0,0,0,573,293.849q-9.443,1.916-18.927,3.868c-8.632,1.773-31.033,6.461-33.573,7-.1.022-1.354.318-3.226.771-10.114,2.448-11.808,12.838-12.133,22.679-.612,18.569-.305,64.755.425,70.8m-.749-.032h0" transform="translate(-167.821 -97.297)" fill="#012258"/>
    <path id="Path_241" data-name="Path 241" d="M480.56,481.01c-.241-.033-5.921-.829-9.3-3.912a7.221,7.221,0,0,1-2.119-5.623,8.374,8.374,0,0,1,3.57-6.333c4.157-3.063,13.2-6.868,13.579-7.029l.773,1.843c-.092.039-9.2,3.873-13.166,6.8a6.411,6.411,0,0,0-2.76,4.828,5.18,5.18,0,0,0,1.47,4.041c2.924,2.668,8.169,3.4,8.221,3.408Z" transform="translate(-156.578 -152.901)" fill="#fff"/>
    <path id="Path_242" data-name="Path 242" d="M492.4,172.479s-3.064,4.7-14.248,23.42l-37.668-13.1-6.551,13.1s7.818,4.307,16.773,9.194c14.653,8,16.035,10.016,23.593,12.684,3.889,1.374,5.834,2.06,7.62,2.2,16.557,1.26,32.421-39.207,34.72-45.2-3.821-6.769-12.754-5.356-16.575-12.125-2.225,1.315-4.908,5.608-7.663,9.832" transform="translate(-144.83 -54.286)" fill="#3685e3"/>
    <path id="Path_243" data-name="Path 243" d="M482.008,220.311c-.276,0-.553-.011-.831-.032-1.917-.146-3.908-.849-7.876-2.25a55.118,55.118,0,0,1-11.5-5.73c-2.905-1.738-6.52-3.9-12.237-7.02-8.958-4.889-16.776-9.2-16.776-9.2l-.841-.464,7.373-14.746L477.046,194c10.728-17.948,13.821-22.708,13.851-22.755h0l.607-.933c2.634-4.05,5.121-7.876,7.385-9.213l.878-.519.5.888c1.742,3.087,4.686,4.323,7.8,5.632,3.29,1.382,6.692,2.81,8.771,6.493l.231.41-.169.439c-4.173,10.88-18.855,45.87-34.9,45.872M434.591,194.8c2.249,1.237,8.72,4.795,15.928,8.729,5.752,3.139,9.538,5.405,12.3,7.059,4.418,2.642,6.636,3.969,11.143,5.56,3.8,1.342,5.709,2.016,7.362,2.142,15.083,1.141,30.213-35.53,33.536-44.111-1.765-2.8-4.587-3.984-7.566-5.235s-6.074-2.551-8.172-5.542c-1.742,1.536-3.875,4.816-5.947,8l-.608.935c-.031.047-3.194,4.916-14.227,23.386l-.418.7-37.608-13.081Z" transform="translate(-144.167 -53.595)" fill="#fff"/>
    <path id="Path_244" data-name="Path 244" d="M421.844,187.79a98.044,98.044,0,0,0-13.971,2.312c-2.243.636-3.765,1.381-3.73,2.23.128,3.151,8.872.544,12.59.286-3.448.664-10.345,2.18-10.415,3.986a1.582,1.582,0,0,0,.3.959c.644.812,2.167.66,3.012.465.768-.176,2.162-.5,3.673-.844l6.334-1.457a52.623,52.623,0,0,1-6.726,2.147l-.131.026c-.39.077-1.457.27-1.758,1a1.289,1.289,0,0,0,.029.987c.432.858,2.852.984,5.756.286a20.23,20.23,0,0,0,5.7-2.326c1.913-1.163,4.354-2.648,3.368-8.263l-4.033-1.8" transform="translate(-134.888 -62.677)" fill="#fff"/>
    <path id="Path_245" data-name="Path 245" d="M432.7,191.776l-7.932-3.534-4.033-1.8-5.264-2.345a24.348,24.348,0,0,0-8.823.127c-1.987.406-5.43,1.107-5.786,2.951a1.994,1.994,0,0,0,.484,1.687c.963,1.013,2.617.2,5.418-.108.5-.058,1.04-.1,1.62-.109a14.588,14.588,0,0,1,6.088,1.125,13.988,13.988,0,0,1,5.43,4.185c-3.939.181-6.718.9-7.067,1.2a7.586,7.586,0,0,0-.643.678,2.257,2.257,0,0,0-.182.249,1.873,1.873,0,0,0-.21.44.907.907,0,0,0-.042.388c.135.962,1.855,1.453,3.939,1.913.632.138,1.3.276,1.963.422,5.832,1.286,4.931,1.842,8.672,2.452a32.927,32.927,0,0,0,10.8-.071,6.118,6.118,0,0,0,1.576-4.592c-.329-2.646-2.775-4.913-6.007-5.266" transform="translate(-133.784 -61.332)" fill="#fff"/>
    <path id="Path_246" data-name="Path 246" d="M430.937,202.614a32.521,32.521,0,0,1-5.261-.422,15.235,15.235,0,0,1-3.645-.985,29.864,29.864,0,0,0-5.081-1.478c-.362-.079-.724-.157-1.081-.233l-.88-.189c-2.446-.54-4.487-1.121-4.715-2.752a1.923,1.923,0,0,1,.075-.815,2.918,2.918,0,0,1,.321-.684,3.321,3.321,0,0,1,.257-.353,8.443,8.443,0,0,1,.752-.791c.584-.511,2.9-1.029,5.594-1.3a12.73,12.73,0,0,0-3.689-2.42,13.64,13.64,0,0,0-5.678-1.044c-.5.009-1,.042-1.524.1-.8.089-1.506.221-2.131.337-1.65.308-3.074.573-4.125-.534a3,3,0,0,1-.741-2.563c.482-2.5,4.286-3.277,6.559-3.741a25.526,25.526,0,0,1,9.191-.137l.247.074,17.09,7.616c3.525.451,6.343,3,6.73,6.117a7.029,7.029,0,0,1-1.819,5.377l-.235.265-.349.059a35.659,35.659,0,0,1-5.863.494m-18.663-6.328c.185.22.9.573,3.144,1.068l.868.187c.361.077.727.155,1.093.236a31.737,31.737,0,0,1,5.375,1.565,13.2,13.2,0,0,0,3.244.877,31.943,31.943,0,0,0,10.107-.011,4.973,4.973,0,0,0,1.115-3.542c-.28-2.254-2.434-4.1-5.125-4.4l-.155-.017-17.251-7.688a23.443,23.443,0,0,0-8.336.141c-1.313.268-4.776.975-5,2.162a1,1,0,0,0,.227.808c.29.305,1.029.185,2.31-.054.66-.123,1.406-.262,2.273-.358.582-.067,1.143-.1,1.713-.115a15.639,15.639,0,0,1,6.5,1.205,14.978,14.978,0,0,1,5.82,4.483l1.21,1.529-1.947.089a23.6,23.6,0,0,0-6.5,1,6.774,6.774,0,0,0-.485.519,1.307,1.307,0,0,0-.107.145,1.082,1.082,0,0,0-.087.165" transform="translate(-133.284 -60.832)" fill="#3685e3"/>
    <path id="Path_247" data-name="Path 247" d="M576.276,150.933c-12.591-6.109-31.091-3.263-40.557,2.794-8.721,5.58-6.809,18.088-5.627,25.871,2.777,18.3,13.52,30.4,18.634,35.465,5.83.544,11.948.96,18.334,1.2,8.909.338,17.345.3,25.246,0a51.969,51.969,0,0,0,3.005-32.459c-.991-4.167-4.085-25.619-19.035-32.873" transform="translate(-176.577 -49.24)" fill="#3685e3"/>
    <path id="Path_248" data-name="Path 248" d="M579.181,216.982c-4.231,0-8.458-.079-12.656-.239-6.108-.232-12.295-.638-18.388-1.205l-.356-.033-.255-.252c-7.221-7.152-16.366-19.208-18.919-36.025-1.192-7.854-3.179-20.942,6.077-26.863,9.834-6.291,28.507-9.171,41.533-2.851,14.048,6.816,17.965,25.808,19.252,32.049.128.62.232,1.124.319,1.492a52.989,52.989,0,0,1-3.061,33.091l-.251.575-.627.024c-4.2.159-8.437.239-12.667.239m-30.5-3.4c5.941.548,11.969.94,17.92,1.165,8.134.309,16.387.317,24.54.023a50.926,50.926,0,0,0,2.7-31.253c-.091-.382-.2-.907-.332-1.551-1.237-6-5-24.268-18.167-30.654-12.01-5.828-30.163-3.291-39.582,2.736-8.162,5.222-6.368,17.032-5.183,24.847,2.446,16.114,11.136,27.717,18.1,34.686" transform="translate(-176.081 -48.721)" fill="#fff"/>
    <path id="Path_249" data-name="Path 249" d="M485.481,245.717H381.491a1.659,1.659,0,0,0-1.659,1.659v5.259a1.659,1.659,0,0,0,1.659,1.659h103.99a1.659,1.659,0,0,0,1.659-1.659v-5.259a1.659,1.659,0,0,0-1.659-1.659" transform="translate(-126.774 -82.011)" fill="#012258"/>
    <path id="Path_250" data-name="Path 250" d="M485.29,245.143H381.3a2.043,2.043,0,0,0-2.041,2.041v5.26a2.043,2.043,0,0,0,2.041,2.041H485.29a2.044,2.044,0,0,0,2.041-2.041v-5.26a2.044,2.044,0,0,0-2.041-2.041m1.276,7.3a1.278,1.278,0,0,1-1.276,1.277H381.3a1.278,1.278,0,0,1-1.277-1.277v-5.26a1.278,1.278,0,0,1,1.277-1.276H485.29a1.277,1.277,0,0,1,1.276,1.276Z" transform="translate(-126.582 -81.82)" fill="#012258"/>
    <path id="Path_251" data-name="Path 251" d="M439.578,177.718a1.658,1.658,0,0,0-1.6-1.234H360.218a1.659,1.659,0,0,0-1.6,2.089q6.894,25.691,13.786,51.385a1.658,1.658,0,0,0,1.6,1.229h77.578a1.659,1.659,0,0,0,1.6-2.083l-13.607-51.385" transform="translate(-119.673 -58.904)" fill="#012258"/>
    <path id="Path_252" data-name="Path 252" d="M439.756,177.428a2.044,2.044,0,0,0-1.973-1.518H360.025a2.041,2.041,0,0,0-1.971,2.57l13.786,51.384a2.043,2.043,0,0,0,1.971,1.512h77.578a2.04,2.04,0,0,0,1.973-2.563ZM452.4,230.114a1.267,1.267,0,0,1-1.011.5H373.811a1.278,1.278,0,0,1-1.233-.945l-13.786-51.385a1.276,1.276,0,0,1,1.233-1.607h77.757a1.277,1.277,0,0,1,1.234.949l13.607,51.385a1.267,1.267,0,0,1-.223,1.105" transform="translate(-119.481 -58.712)" fill="#012258"/>
    <path id="Path_253" data-name="Path 253" d="M457.321,246.869H375.972v-2h79.35v-.089h2Z" transform="translate(-125.486 -81.699)" fill="#fff"/>
    <path id="Path_254" data-name="Path 254" d="M590.4,155.923c-3.768-3.69-8.987-4.916-12.688-3.131-5.142,2.48-7.689,10.933-3,17.961l22.94,36.581-47.128,1.708v15.2l78.894-.1A255.03,255.03,0,0,0,590.4,155.923" transform="translate(-183.745 -50.727)" fill="#3685e3"/>
    <path id="Path_255" data-name="Path 255" d="M549.026,224.746V207.58l46.36-1.68-22.021-35.115a14.98,14.98,0,0,1-2.123-12.221,10.982,10.982,0,0,1,5.538-7.171c4.116-1.987,9.8-.622,13.821,3.317l.081.09a255.994,255.994,0,0,1,39.17,68.486l.518,1.354Zm2-15.238v13.236l76.439-.1a254.017,254.017,0,0,0-38.3-66.55c-3.427-3.33-8.153-4.523-11.511-2.9a9,9,0,0,0-4.478,5.9,13,13,0,0,0,1.873,10.61l23.876,38.071Z" transform="translate(-183.245 -50.228)" fill="#fff"/>
    <path id="Path_256" data-name="Path 256" d="M528.248,237.537c-2.412.042-5.179.746-10.627,2.41-3.645,1.113-5.347,3.793-5.441,4.581-.068.568-.983,6.32,2.394,7.463s13.607-.167,13.607-.167,10.43.869,15.23-1.215a3.317,3.317,0,0,0,1.59-1.3c1.47-2.49-1.866-6.462-2.331-7a24.615,24.615,0,0,0-14.421-4.768" transform="translate(-170.892 -79.28)" fill="#fff"/>
    <path id="Path_257" data-name="Path 257" d="M518.648,252.962a17.005,17.005,0,0,1-4.9-.524c-2.585-.875-3.678-3.871-3.077-8.439l.011-.089c.148-1.242,2.159-4.2,6.142-5.418,5.326-1.627,8.315-2.409,10.9-2.454a25.449,25.449,0,0,1,15.019,4.953l.178.163c1.009,1.174,4.165,5.233,2.433,8.163a4.221,4.221,0,0,1-2.051,1.709c-4.764,2.067-14.42,1.394-15.605,1.3a82.02,82.02,0,0,1-9.053.633m9.115-14.926h0c-2.347.041-5.208.8-10.352,2.367a7.325,7.325,0,0,0-4.744,3.757l-.013.1c-.216,1.64-.479,5.535,1.737,6.284,2.591.877,10.378.145,13.159-.211l.1-.013.1.009c.1.008,10.235.824,14.75-1.136a2.276,2.276,0,0,0,1.127-.892c.88-1.489-.9-4.271-2.151-5.753a23.252,23.252,0,0,0-13.723-4.511" transform="translate(-170.39 -78.78)" fill="#3685e3"/>
    <path id="Path_258" data-name="Path 258" d="M566.776,317.46A25.7,25.7,0,0,1,592.5,291.84H634.67l-7.179,29.817a17.584,17.584,0,0,1-3.265,6.722,17.779,17.779,0,0,1-14.07,6.842H566.776Z" transform="translate(-189.169 -97.405)" fill="#012258"/>
    <path id="Path_259" data-name="Path 259" d="M571.158,415.594h-11.28L532.04,346.58,518.3,312.523c-4.925-12.205-16.246-20.13-28.769-20.13H375.992a29.319,29.319,0,0,0-4.629.364,31.648,31.648,0,0,0-24.14,19.766L305.642,415.594h-11.28l18.083-59.179,26.049-85.286H527.026Z" transform="translate(-98.247 -90.493)" fill="#012258"/>
    <path id="Path_260" data-name="Path 260" d="M571.158,415.594h-11.28L532.04,346.58,518.3,312.523c-4.925-12.205-16.246-20.13-28.769-20.13H375.992a29.319,29.319,0,0,0-4.629.364,31.648,31.648,0,0,0-24.14,19.766L305.642,415.594h-11.28l18.083-59.179,26.049-85.286H527.026Z" transform="translate(-98.247 -90.493)" fill="#012258"/>
    <path id="Path_261" data-name="Path 261" d="M551.154,415.594H539.837L499.916,313.232c-4.842-12.422-15.97-20.475-28.28-20.475H360.028c-12.311,0-23.438,8.053-28.28,20.475l-16.838,43.184-23.083,59.179H280.509L323.167,271.13H508.5l22.279,75.45Z" transform="translate(-93.624 -90.493)" fill="#fff"/>
    <path id="Path_262" data-name="Path 262" d="M551.821,416.093H538.484l-.248-.636L498.315,313.094c-4.7-12.052-15.433-19.839-27.349-19.839H359.358c-11.916,0-22.651,7.788-27.349,19.839l-40.169,103H278.5L321.75,269.63H508.574Zm-11.971-2h9.3L507.08,271.629H323.244L281.177,414.094h9.3l39.672-101.726c5-12.825,16.466-21.112,29.211-21.112H470.966c12.746,0,24.212,8.287,29.211,21.112Z" transform="translate(-92.954 -89.993)" fill="#012258"/>
    <path id="Path_263" data-name="Path 263" d="M551.676,415.984h-12.9L498.665,313.125c-4.731-12.136-15.546-19.978-27.553-19.978H359.505c-12.008,0-22.822,7.842-27.553,19.978L291.837,415.984h-12.9L322.06,269.958h186.5Zm-11.829-1.562h9.738l-42.2-142.9H323.227l-42.2,142.9h9.738L330.5,312.557c4.966-12.74,16.353-20.973,29.009-20.973H471.112c12.656,0,24.042,8.233,29.008,20.973Z" transform="translate(-93.1 -90.102)" fill="#012258"/>
    <rect id="Rectangle_42" data-name="Rectangle 42" width="286.026" height="10.551" transform="translate(186.885 173.333)" fill="#fff"/>
    <path id="Path_264" data-name="Path 264" d="M567.034,271.215H279.01V258.666H567.034Zm-286.025-2H565.035v-8.552H281.009Z" transform="translate(-93.123 -86.333)" fill="#012258"/>
    <path id="Path_265" data-name="Path 265" d="M566.924,271.107H279.337V258.995H566.924ZM280.9,269.546H565.363v-8.989H280.9Z" transform="translate(-93.232 -86.443)" fill="#012258"/>
    <path id="Path_266" data-name="Path 266" d="M540.259,68s-8.54-13.661-3.48-20.094a9.1,9.1,0,0,1,5.433-2.952c9.371-2.215,22.282,5.592,22.306,13.861a11.431,11.431,0,0,1-4.71,8.728,13.212,13.212,0,0,1-7.381,2.311c-.726-.019-1.085-.108-2.078-.1a16.787,16.787,0,0,0-5.629,1.021L540.259,68" transform="translate(-178.622 -14.875)" fill="#012258"/>
    <path id="Path_267" data-name="Path 267" d="M544.537,70.947l-4.636-2.88-.035-.056c-.353-.565-8.588-13.906-3.462-20.423a9.287,9.287,0,0,1,5.488-3.029l.1-.024c5.189-1.227,12.028.592,17.016,4.526,3.576,2.821,5.632,6.324,5.642,9.611a11.665,11.665,0,0,1-4.828,8.961A13.362,13.362,0,0,1,552.269,70c-.3-.008-.538-.027-.782-.047-.348-.028-.708-.057-1.286-.055a16.5,16.5,0,0,0-5.534,1Zm-4.22-3.3,4.287,2.664a17.037,17.037,0,0,1,5.594-.991c.6,0,.977.027,1.337.056.234.019.462.039.75.046a13.008,13.008,0,0,0,7.207-2.257,11.072,11.072,0,0,0,4.59-8.5c-.009-3.112-1.985-6.452-5.424-9.164-4.858-3.832-11.5-5.608-16.531-4.419l-.1.025a8.662,8.662,0,0,0-5.171,2.826c-4.718,6,2.883,18.757,3.464,19.711" transform="translate(-178.472 -14.737)" fill="#012258"/>
    <path id="Path_268" data-name="Path 268" d="M540.053,74.189s12.984-4.53,18.286,4.415c5.263,8.879-20.176.867-18.286-4.415" transform="translate(-180.216 -24.379)" fill="#3685e3"/>
    <path id="Path_269" data-name="Path 269" d="M551.614,109.046c.976-.506,13.327,27.575,13.327,27.575l-21.9,2.8-6.024-21.367Z" transform="translate(-179.238 -36.393)" fill="#fff"/>
    <path id="Path_270" data-name="Path 270" d="M541.733,139.983l-6.463-22.921,15.682-9.645.47.143c.48.169,1.754.619,13.848,28.116l.538,1.224ZM537.6,117.97l5.586,19.812,19.713-2.525c-4.057-9.18-10.205-22.627-12.035-25.479Z" transform="translate(-178.653 -35.852)" fill="#3685e3"/>
    <path id="Path_271" data-name="Path 271" d="M525.791,87.876a54.064,54.064,0,0,0-2.023,12.17c-.059,1.183-2.957,22,7.705,23.332,14.417,1.011,18.958-13.545,19.524-18.467.48-4.143,1.122-9.755-2.283-14.8a13.031,13.031,0,0,0-2.683-3c-6.97-5.514-19.31.3-20.24.756" transform="translate(-174.68 -28.29)" fill="#fff"/>
    <path id="Path_272" data-name="Path 272" d="M532.408,123.937q-.733,0-1.5-.053c-7.076-.885-10.139-9.375-8.678-23.91.023-.234.04-.394.044-.468a55.222,55.222,0,0,1,2.06-12.4l.122-.427.4-.2c.558-.273,13.742-6.623,21.3-.642a14.079,14.079,0,0,1,2.891,3.221c3.62,5.359,2.943,11.2,2.448,15.47-.637,5.54-5.308,19.4-19.084,19.4M526.131,88.1a53.226,53.226,0,0,0-1.863,11.51c0,.09-.023.284-.051.569-.623,6.193-1.2,20.708,6.883,21.721.448.031.887.047,1.314.047,12.308,0,16.513-12.6,17.092-17.635.458-3.957,1.087-9.377-2.119-14.122a11.994,11.994,0,0,0-2.472-2.771c-6-4.746-16.567-.331-18.785.681" transform="translate(-174.182 -27.799)" fill="#3685e3"/>
    <path id="Path_273" data-name="Path 273" d="M526.172,109.4a.666.666,0,0,1-.588-.978,2.776,2.776,0,0,1,2.128-1.723,3.124,3.124,0,0,1,2.44,1.269.666.666,0,1,1-1.055.813c-.164-.209-.762-.8-1.274-.753-.452.04-.826.576-1.06,1.018a.667.667,0,0,1-.59.354" transform="translate(-175.395 -35.609)" fill="#012258"/>
    <path id="Path_274" data-name="Path 274" d="M539.688,108.942a.666.666,0,0,1-.548-1.045,3.511,3.511,0,0,1,2.577-1.707,3.927,3.927,0,0,1,2.858,1.162.666.666,0,0,1-.957.928,2.636,2.636,0,0,0-1.8-.762,2.27,2.27,0,0,0-1.584,1.135.667.667,0,0,1-.549.288" transform="translate(-179.906 -35.439)" fill="#012258"/>
    <path id="Path_275" data-name="Path 275" d="M532.55,118.1a1,1,0,0,1-.949-1.312l1.468-4.454a1,1,0,0,1,1.9.626L533.5,117.41a1,1,0,0,1-.949.687" transform="translate(-177.412 -37.263)" fill="#3685e3"/>
    <path id="Path_276" data-name="Path 276" d="M535.522,128.062a5.49,5.49,0,0,1-3.119-.97,1,1,0,0,1,1.205-1.594,3.478,3.478,0,0,0,2.735.466,5.637,5.637,0,0,0,3.348-2.739,1,1,0,0,1,1.8.873,7.59,7.59,0,0,1-4.674,3.809,5.489,5.489,0,0,1-1.292.155" transform="translate(-177.565 -40.941)" fill="#3685e3"/>
    <path id="Path_277" data-name="Path 277" d="M531.914,88c4.874,2.44,20.621,24.382,17.813,34.077,1.468-3.089,6.614-13.242,4.995-21.882a28.018,28.018,0,0,0-5.534-11.763c-1.98-2.445-3.422-3.081-4.587-3.349-3.594-.823-12.058,2.378-12.686,2.917" transform="translate(-177.533 -28.353)" fill="#012258"/>
    <path id="Path_278" data-name="Path 278" d="M522.683,90.584s7.936-7.451,15.263-5.61,12.683,23.039,12.683,23.039,11.784-10.93,4.345-23.248c-3.7-6.131-12.44-8.981-19.623-8.141s-10.9,3.5-12.145,5.03c-3.2,3.917-.522,8.93-.522,8.93" transform="translate(-174.102 -25.526)" fill="#012258"/>
    <rect id="Rectangle_43" data-name="Rectangle 43" width="53.382" height="1.963" transform="translate(316.682 325.869)" fill="#012258"/>
    <path id="Path_279" data-name="Path 279" d="M326.374,213c-.051.829-.1,1.662-.153,2.491q-.106,1.749-.215,3.5-.412,6.734-.823,13.465-.223,3.62-.442,7.236a2.942,2.942,0,0,1-2.9,2.764l-11.622.154a2.942,2.942,0,0,1-2.968-2.687q-.319-3.612-.634-7.221-.59-6.721-1.179-13.439-.157-1.749-.307-3.494c-.073-.828-.146-1.658-.219-2.486a2.936,2.936,0,0,1,1.206-2.64,2.907,2.907,0,0,1,1.688-.56l15.588-.207a2.9,2.9,0,0,1,1.7.516A2.935,2.935,0,0,1,326.374,213" transform="translate(-101.766 -70.051)" fill="#012258"/>
    <path id="Path_280" data-name="Path 280" d="M326.276,223.562q-.412,6.734-.823,13.465l-18.563.246q-.589-6.721-1.179-13.438Z" transform="translate(-102.035 -74.617)" fill="#3685e3"/>
    <path id="Path_281" data-name="Path 281" d="M326.066,206.755l-20.447.271c.042-.269.087-.539.129-.809q.194-1.213.39-2.427c.047-.3.094-.59.141-.887a2.5,2.5,0,0,1,2.438-2.107l14.086-.187a2.5,2.5,0,0,1,2.492,2.041l.165.883q.23,1.207.454,2.415c.049.268.1.537.151.805" transform="translate(-102.004 -66.956)" fill="#3685e3"/>
    <path id="Path_282" data-name="Path 282" d="M326.026,212.092l-23.119.306a1.488,1.488,0,0,1-1.508-1.469l-.017-1.326a1.489,1.489,0,0,1,1.469-1.508l23.118-.306a1.49,1.49,0,0,1,1.509,1.469l.018,1.327a1.489,1.489,0,0,1-1.469,1.508" transform="translate(-100.59 -69.352)" fill="#3685e3"/>
    <path id="Path_283" data-name="Path 283" d="M323.913,234.779c-.39,2.015-2.612,3.579-5.315,3.614-2.943.039-5.361-1.746-5.482-4.018a9.364,9.364,0,0,0,4.4,1.447,3.262,3.262,0,0,0,1.563-.388c.345-.195.662-.384.939-.551,1.5-.907,2.167-1.31,3.9-.1" transform="translate(-104.507 -78.11)" fill="#fff"/>
    <path id="Path_284" data-name="Path 284" d="M313.3,231.224c.538-1.874,2.673-3.292,5.245-3.326,2.783-.037,5.1,1.56,5.442,3.654-1.884-1.129-2.857-.54-4.315.342-.286.173-.584.351-.918.538-1.585.885-4.159-.423-5.454-1.209" transform="translate(-104.569 -76.064)" fill="#fff"/>
    <path id="Path_285" data-name="Path 285" d="M325.023,208.654H305.5a.874.874,0,0,1,0-1.748h19.518a.874.874,0,0,1,0,1.748" transform="translate(-101.675 -69.058)" fill="#fff"/>
    <path id="Path_286" data-name="Path 286" d="M728.8,25.316V48.934a12.349,12.349,0,0,1-12.349,12.349H670.781a18.464,18.464,0,0,0-13.978,6.4l-3.9,4.514a2.759,2.759,0,0,1-4.848-1.8V25.316a12.349,12.349,0,0,1,12.349-12.349h56.041A12.349,12.349,0,0,1,728.8,25.316" transform="translate(-216.298 -4.328)" fill="#fff"/>
    <path id="Path_287" data-name="Path 287" d="M677.188,38.719h40.653c1.052,0,1.905-.521,1.905-1.164s-.853-1.165-1.905-1.165H677.188c-1.053,0-1.905.522-1.905,1.165s.853,1.164,1.905,1.164" transform="translate(-225.385 -12.146)" fill="#012258"/>
    <path id="Path_288" data-name="Path 288" d="M677.188,50.367h40.653c1.052,0,1.905-.521,1.905-1.164s-.853-1.165-1.905-1.165H677.188c-1.053,0-1.905.522-1.905,1.165s.853,1.164,1.905,1.164" transform="translate(-225.385 -16.033)" fill="#012258"/>
    <path id="Path_289" data-name="Path 289" d="M677.188,62.016h40.653c1.052,0,1.905-.521,1.905-1.164s-.853-1.165-1.905-1.165H677.188c-1.053,0-1.905.522-1.905,1.165s.853,1.164,1.905,1.164" transform="translate(-225.385 -19.921)" fill="#012258"/>
    <path id="Path_290" data-name="Path 290" d="M649.258,73.287A3.434,3.434,0,0,1,647,70.04V24.963a13.069,13.069,0,0,1,13.054-13.054H716.1a13.069,13.069,0,0,1,13.054,13.054V48.58A13.069,13.069,0,0,1,716.1,61.635H670.427a17.746,17.746,0,0,0-13.444,6.155l-3.9,4.514a3.436,3.436,0,0,1-2.608,1.2,3.5,3.5,0,0,1-1.221-.222m10.8-59.969A11.658,11.658,0,0,0,648.41,24.963V70.04a2.054,2.054,0,0,0,3.61,1.342l3.9-4.514a19.157,19.157,0,0,1,14.511-6.644H716.1A11.658,11.658,0,0,0,727.74,48.58V24.963A11.658,11.658,0,0,0,716.1,13.318Z" transform="translate(-215.945 -3.975)" fill="#012258"/>
    <path id="Path_291" data-name="Path 291" d="M269.953,34.384A33.435,33.435,0,1,1,236.518.949a33.435,33.435,0,0,1,33.435,33.435" transform="translate(-67.782 -0.317)" fill="#fff"/>
    <path id="Path_292" data-name="Path 292" d="M236.2,68.134a34.067,34.067,0,1,1,34.067-34.067A34.105,34.105,0,0,1,236.2,68.134M236.2,2A32.068,32.068,0,1,0,268.27,34.067,32.1,32.1,0,0,0,236.2,2" transform="translate(-67.465)" fill="#012258"/>
    <path id="Path_293" data-name="Path 293" d="M272.516,16.7a.508.508,0,0,1-.1.434L254.356,43.589l-1.5-4.716L271.623,16.5a.509.509,0,0,1,.893.2" transform="translate(-84.393 -5.443)" fill="#3685e3"/>
    <path id="Path_294" data-name="Path 294" d="M253.363,14.019a1,1,0,0,1-1-1v-6.8a1,1,0,0,1,2,0v6.8a1,1,0,0,1-1,1" transform="translate(-84.23 -1.741)" fill="#012258"/>
    <path id="Path_295" data-name="Path 295" d="M220.3,32.191a.994.994,0,0,1-.5-.135l-5.893-3.4a1,1,0,0,1,1-1.731l5.893,3.4a1,1,0,0,1-.5,1.865" transform="translate(-71.229 -8.941)" fill="#012258"/>
    <path id="Path_296" data-name="Path 296" d="M213.623,71.6a1,1,0,0,1-.5-1.865l5.893-3.4a1,1,0,1,1,1,1.73l-5.893,3.4a.992.992,0,0,1-.5.135" transform="translate(-70.965 -22.096)" fill="#012258"/>
    <path id="Path_297" data-name="Path 297" d="M251.78,92.843a1,1,0,0,1-1-1v-6.8a1,1,0,0,1,2,0v6.8a1,1,0,0,1-1,1" transform="translate(-83.701 -28.049)" fill="#012258"/>
    <path id="Path_298" data-name="Path 298" d="M287.777,72.974a.99.99,0,0,1-.5-.135l-5.894-3.4a1,1,0,0,1,1-1.731l5.894,3.4a1,1,0,0,1-.5,1.865" transform="translate(-93.749 -22.553)" fill="#012258"/>
    <path id="Path_299" data-name="Path 299" d="M282.678,33.561a1,1,0,0,1-.5-1.865l5.893-3.4a1,1,0,1,1,1,1.73l-5.893,3.4a.994.994,0,0,1-.5.135" transform="translate(-94.013 -9.399)" fill="#012258"/>
    <path id="Path_300" data-name="Path 300" d="M230.445,43.814a.367.367,0,0,1,.32-.027l14.549,4.25,1.5,4.716L230.5,44.473a.368.368,0,0,1-.055-.659" transform="translate(-76.854 -14.606)" fill="#3685e3"/>
    <path id="Path_301" data-name="Path 301" d="M181.837,265.352a30.55,30.55,0,1,0-30.55,30.55,30.55,30.55,0,0,0,30.55-30.55" transform="translate(-40.298 -78.368)" fill="#3685e3"/>
    <path id="Path_302" data-name="Path 302" d="M155.741,314.862a30.55,30.55,0,1,0-30.55,30.55,30.55,30.55,0,0,0,30.55-30.55" transform="translate(-31.588 -94.893)" fill="#3685e3"/>
    <path id="Path_303" data-name="Path 303" d="M209.154,314.862a30.55,30.55,0,1,0-30.55,30.55,30.55,30.55,0,0,0,30.55-30.55" transform="translate(-49.415 -94.893)" fill="#3685e3"/>
    <rect id="Rectangle_44" data-name="Rectangle 44" width="1.999" height="57.979" transform="translate(109.991 186.983)" fill="#fff"/>
    <rect id="Rectangle_45" data-name="Rectangle 45" width="1.999" height="32.306" transform="translate(109.991 244.775)" fill="#012258"/>
    <rect id="Rectangle_46" data-name="Rectangle 46" width="18.106" height="1.998" transform="translate(110.335 205.775) rotate(-41.053)" fill="#fff"/>
    <rect id="Rectangle_47" data-name="Rectangle 47" width="1.999" height="16.161" transform="matrix(0.573, -0.82, 0.82, 0.573, 97.169, 220.66)" fill="#fff"/>
    <path id="Path_304" data-name="Path 304" d="M158.822,415.89H135.944a4.561,4.561,0,0,0-4.446,5.578l9.086,39.754a4.561,4.561,0,0,0,4.446,3.544h20.433a4.561,4.561,0,0,0,4.446-3.544L179,421.468a4.561,4.561,0,0,0-4.446-5.578Z" transform="translate(-43.85 -138.809)" fill="#fff"/>
    <path id="Path_305" data-name="Path 305" d="M164.963,465.265H144.529a5.534,5.534,0,0,1-5.42-4.322l-9.086-39.753a5.561,5.561,0,0,1,5.42-6.8h38.606a5.562,5.562,0,0,1,5.421,6.8l-9.087,39.753a5.533,5.533,0,0,1-5.421,4.322m-29.52-48.876a3.562,3.562,0,0,0-3.472,4.356l9.086,39.753a3.545,3.545,0,0,0,3.472,2.768h20.434a3.545,3.545,0,0,0,3.472-2.768l9.086-39.753a3.561,3.561,0,0,0-3.472-4.356Z" transform="translate(-43.349 -138.308)" fill="#012258"/>
  </g>
</svg>
