<svg id="Group_29" data-name="Group 29" xmlns="http://www.w3.org/2000/svg" xmlns:xlink="http://www.w3.org/1999/xlink" width="599.497" height="349.908" viewBox="0 0 599.497 349.908">
  <defs>
    <clipPath id="clip-path">
      <rect id="Rectangle_38" data-name="Rectangle 38" width="599.497" height="349.908" fill="none"/>
    </clipPath>
  </defs>
  <g id="Group_28" data-name="Group 28">
    <g id="Group_27" data-name="Group 27" clip-path="url(#clip-path)">
      <path id="Path_138" data-name="Path 138" d="M296.619,21.831a6.5,6.5,0,1,0-6.5,6.5,6.5,6.5,0,0,0,6.5-6.5" transform="translate(-84.404 -4.562)" fill="#3685e3"/>
      <path id="Path_139" data-name="Path 139" d="M562.774,374.094a6.5,6.5,0,1,0-6.5,6.5,6.5,6.5,0,0,0,6.5-6.5" transform="translate(-163.611 -109.395)" fill="#012258"/>
      <rect id="Rectangle_26" data-name="Rectangle 26" width="2.107" height="14.245" transform="translate(524.668 227.739)" fill="#012258"/>
      <rect id="Rectangle_27" data-name="Rectangle 27" width="14.245" height="2.107" transform="translate(518.599 233.808)" fill="#012258"/>
      <rect id="Rectangle_28" data-name="Rectangle 28" width="14.246" height="2.107" transform="translate(438.114 19.361) rotate(-45.001)" fill="#012258"/>
      <rect id="Rectangle_29" data-name="Rectangle 29" width="2.107" height="14.246" transform="translate(438.114 10.778) rotate(-45)" fill="#012258"/>
      <rect id="Rectangle_30" data-name="Rectangle 30" width="599.497" height="2.107" transform="translate(0 347.667)" fill="#012258"/>
      <path id="Path_140" data-name="Path 140" d="M488.451,6.482V99.167a3.121,3.121,0,0,1-.013.343c-.119,2.591-1.63,4.639-3.471,4.639H393.293c-1.923,0-3.484-2.229-3.484-4.982V6.482c0-2.753,1.561-4.982,3.484-4.982h91.674c1.842,0,3.353,2.047,3.471,4.639a3.121,3.121,0,0,1,.013.343" transform="translate(-116.007 -0.446)" fill="#fff"/>
      <path id="Path_141" data-name="Path 141" d="M484.52,104.757H392.846c-2.544,0-4.537-2.651-4.537-6.036V6.036C388.309,2.651,390.3,0,392.846,0H484.52c2.432,0,4.377,2.427,4.523,5.644a3.511,3.511,0,0,1,.014.392V98.721a4.162,4.162,0,0,1-.019.459c-.142,3.15-2.087,5.577-4.519,5.577M392.846,2.107c-1.317,0-2.43,1.8-2.43,3.929V98.721c0,2.13,1.113,3.929,2.43,3.929H484.52c1.242,0,2.327-1.63,2.419-3.634a2.617,2.617,0,0,0,.011-.3V6.036a2.054,2.054,0,0,0-.006-.228c-.1-2.071-1.182-3.7-2.424-3.7Z" transform="translate(-115.56)" fill="#3685e3"/>
      <path id="Path_142" data-name="Path 142" d="M488.451,6.482v9.034H389.809V6.482c0-2.753,1.561-4.982,3.484-4.982h90.176a4.977,4.977,0,0,1,4.97,4.639,3.121,3.121,0,0,1,.013.343" transform="translate(-116.007 -0.446)" fill="#3685e3"/>
      <path id="Path_143" data-name="Path 143" d="M493.3,15.3h-7.688a.5.5,0,0,1,0-1H493.3a.5.5,0,0,1,0,1" transform="translate(-144.369 -4.258)" fill="#fff"/>
      <path id="Path_144" data-name="Path 144" d="M515.693,13.387a.5.5,0,0,1-.334-.129l-4.974-4.522A.5.5,0,0,1,511.052,8l4.974,4.522a.5.5,0,0,1-.334.866" transform="translate(-151.841 -2.342)" fill="#fff"/>
      <path id="Path_145" data-name="Path 145" d="M510.718,13.388a.5.5,0,0,1-.334-.866L515.358,8a.5.5,0,0,1,.669.737l-4.974,4.522a.5.5,0,0,1-.334.129" transform="translate(-151.841 -2.342)" fill="#fff"/>
      <path id="Path_146" data-name="Path 146" d="M484.521,104.756H392.847c-2.543,0-4.536-2.65-4.536-6.034V6.036C388.311,2.654,390.3,0,392.847,0h91.674c2.43,0,4.375,2.426,4.521,5.642a3.471,3.471,0,0,1,.015.391V98.722a4.183,4.183,0,0,1-.02.459c-.142,3.15-2.086,5.575-4.516,5.575M392.847,2.106c-1.318,0-2.432,1.8-2.432,3.93V98.722c0,2.131,1.113,3.931,2.432,3.931h91.674c1.243,0,2.329-1.631,2.421-3.636a2.759,2.759,0,0,0,.01-.3V6.036a2.227,2.227,0,0,0-.006-.227c-.1-2.071-1.183-3.7-2.426-3.7Z" transform="translate(-115.561 -0.001)" fill="#3685e3"/>
      <path id="Path_147" data-name="Path 147" d="M443.666,56.4h6.178a1.7,1.7,0,0,1,0,3.348h-6.178a1.7,1.7,0,0,1,0-3.348" transform="translate(-131.617 -16.784)" fill="#3685e3"/>
      <path id="Path_148" data-name="Path 148" d="M426.007,56.4h6.039a1.707,1.707,0,0,1,0,3.348h-6.039a1.707,1.707,0,0,1,0-3.348" transform="translate(-126.371 -16.784)" fill="#3685e3"/>
      <path id="Path_149" data-name="Path 149" d="M488.168,58.073h0a1.557,1.557,0,0,1-1.4,1.674h-24.71a1.7,1.7,0,0,1,0-3.348h24.71a1.557,1.557,0,0,1,1.4,1.674" transform="translate(-137.089 -16.784)" fill="#3685e3"/>
      <path id="Path_150" data-name="Path 150" d="M509.555,58.073h0a1.557,1.557,0,0,1-1.4,1.674H504.5a1.7,1.7,0,0,1,0-3.348h3.65a1.557,1.557,0,0,1,1.4,1.674" transform="translate(-149.721 -16.784)" fill="#3685e3"/>
      <path id="Path_151" data-name="Path 151" d="M414.221,58.073h0a1.557,1.557,0,0,1-1.4,1.674h-3.65a1.7,1.7,0,0,1,0-3.348h3.65a1.557,1.557,0,0,1,1.4,1.674" transform="translate(-121.35 -16.784)" fill="#3685e3"/>
      <path id="Path_152" data-name="Path 152" d="M414.221,71.424h0a1.557,1.557,0,0,1-1.4,1.674h-3.65a1.7,1.7,0,0,1,0-3.348h3.65a1.557,1.557,0,0,1,1.4,1.674" transform="translate(-121.35 -20.758)" fill="#3685e3"/>
      <path id="Path_153" data-name="Path 153" d="M414.221,84.774h0a1.557,1.557,0,0,1-1.4,1.674h-3.65a1.7,1.7,0,0,1,0-3.348h3.65a1.557,1.557,0,0,1,1.4,1.674" transform="translate(-121.35 -24.73)" fill="#3685e3"/>
      <path id="Path_154" data-name="Path 154" d="M414.221,98.125h0a1.557,1.557,0,0,1-1.4,1.674h-3.65a1.7,1.7,0,0,1,0-3.348h3.65a1.557,1.557,0,0,1,1.4,1.674" transform="translate(-121.35 -28.704)" fill="#3685e3"/>
      <path id="Path_155" data-name="Path 155" d="M414.221,111.476h0a1.557,1.557,0,0,1-1.4,1.674h-3.65a1.7,1.7,0,0,1,0-3.348h3.65a1.557,1.557,0,0,1,1.4,1.674" transform="translate(-121.35 -32.677)" fill="#3685e3"/>
      <path id="Path_156" data-name="Path 156" d="M448.784,83.091h10.108a1.7,1.7,0,0,1,0,3.348H448.784a1.7,1.7,0,0,1,0-3.348" transform="translate(-133.14 -24.728)" fill="#3685e3"/>
      <path id="Path_157" data-name="Path 157" d="M426.038,83.091h10.108a1.7,1.7,0,0,1,0,3.348H426.038a1.7,1.7,0,0,1,0-3.348" transform="translate(-126.371 -24.728)" fill="#3685e3"/>
      <path id="Path_158" data-name="Path 158" d="M499.918,84.765h0a1.557,1.557,0,0,1-1.4,1.674H472.12a1.7,1.7,0,0,1,0-3.348h26.394a1.557,1.557,0,0,1,1.4,1.674" transform="translate(-140.085 -24.728)" fill="#3685e3"/>
      <path id="Path_159" data-name="Path 159" d="M426.038,96.437h18.251a1.7,1.7,0,0,1,0,3.348H426.038a1.7,1.7,0,0,1,0-3.348" transform="translate(-126.371 -28.7)" fill="#3685e3"/>
      <path id="Path_160" data-name="Path 160" d="M501.822,98.111h0a1.557,1.557,0,0,1-1.4,1.674h-21.9a1.7,1.7,0,0,1,0-3.348h21.9a1.557,1.557,0,0,1,1.4,1.674" transform="translate(-141.988 -28.7)" fill="#3685e3"/>
      <path id="Path_161" data-name="Path 161" d="M468.386,98.111h0a1.557,1.557,0,0,1-1.4,1.674h-7.02a1.7,1.7,0,0,1,0-3.348h7.02a1.557,1.557,0,0,1,1.4,1.674" transform="translate(-136.466 -28.7)" fill="#3685e3"/>
      <path id="Path_162" data-name="Path 162" d="M504.2,71.419h0a1.557,1.557,0,0,1-1.4,1.674H486.511a1.7,1.7,0,0,1,0-3.348H502.8a1.557,1.557,0,0,1,1.4,1.674" transform="translate(-144.367 -20.756)" fill="#3685e3"/>
      <path id="Path_163" data-name="Path 163" d="M443.728,71.419h0a1.557,1.557,0,0,1-1.4,1.674H426.038a1.7,1.7,0,0,1,0-3.348h16.286a1.557,1.557,0,0,1,1.4,1.674" transform="translate(-126.371 -20.756)" fill="#3685e3"/>
      <path id="Path_164" data-name="Path 164" d="M471.963,71.419h0a1.7,1.7,0,0,1-1.732,1.674H461.57a1.675,1.675,0,1,1,0-3.348h8.661a1.7,1.7,0,0,1,1.732,1.674" transform="translate(-136.847 -20.756)" fill="#3685e3"/>
      <path id="Path_165" data-name="Path 165" d="M426.411,109.783h9.234a1.677,1.677,0,1,1,0,3.348h-9.234a1.677,1.677,0,1,1,0-3.348" transform="translate(-126.371 -32.671)" fill="#3685e3"/>
      <path id="Path_166" data-name="Path 166" d="M448.016,109.783h19.847a1.675,1.675,0,0,1,0,3.348H448.016a1.675,1.675,0,0,1,0-3.348" transform="translate(-132.845 -32.671)" fill="#3685e3"/>
      <path id="Path_167" data-name="Path 167" d="M491.42,111.458h0a1.557,1.557,0,0,1-1.4,1.674H483a1.7,1.7,0,0,1,0-3.348h7.02a1.557,1.557,0,0,1,1.4,1.674" transform="translate(-143.322 -32.672)" fill="#3685e3"/>
      <path id="Path_168" data-name="Path 168" d="M508.3,111.458h0a1.538,1.538,0,0,1-1.347,1.674h-6.735a1.713,1.713,0,0,1,0-3.348h6.735a1.538,1.538,0,0,1,1.347,1.674" transform="translate(-148.462 -32.672)" fill="#3685e3"/>
      <path id="Path_169" data-name="Path 169" d="M658.862,61.379v131.23a7.052,7.052,0,0,1-7.056,7.056H466.153a7.052,7.052,0,0,1-7.056-7.056V61.379a7.053,7.053,0,0,1,7.056-7.056H651.806a7.053,7.053,0,0,1,7.056,7.056" transform="translate(-136.627 -16.166)" fill="#fff"/>
      <path id="Path_170" data-name="Path 170" d="M651.36,200.272H465.706a8.119,8.119,0,0,1-8.109-8.11V60.932a8.118,8.118,0,0,1,8.109-8.109H651.36a8.118,8.118,0,0,1,8.109,8.109v131.23a8.119,8.119,0,0,1-8.109,8.11M465.706,54.93a6.009,6.009,0,0,0-6,6v131.23a6.009,6.009,0,0,0,6,6H651.36a6.009,6.009,0,0,0,6-6V60.932a6.009,6.009,0,0,0-6-6Z" transform="translate(-136.18 -15.72)" fill="#012258"/>
      <path id="Path_171" data-name="Path 171" d="M659.2,60.511V74.747H457.661V60.511c0-4.339,3.185-7.851,7.119-7.851h187.3c3.933,0,7.118,3.512,7.118,7.851" transform="translate(-136.2 -15.672)" fill="#3685e3"/>
      <path id="Path_172" data-name="Path 172" d="M691.158,73.913H680.274a.777.777,0,1,1,0-1.553h10.884a.777.777,0,1,1,0,1.553" transform="translate(-202.218 -21.534)" fill="#fff"/>
      <path id="Path_173" data-name="Path 173" d="M722.867,71.2a.776.776,0,0,1-.523-.2L715.3,64.6a.777.777,0,0,1,1.045-1.15l7.043,6.4a.777.777,0,0,1-.523,1.351" transform="translate(-212.797 -18.822)" fill="#fff"/>
      <path id="Path_174" data-name="Path 174" d="M715.825,71.2a.777.777,0,0,1-.523-1.351l7.043-6.4a.777.777,0,0,1,1.045,1.15L716.348,71a.776.776,0,0,1-.523.2" transform="translate(-212.798 -18.822)" fill="#fff"/>
      <path id="Path_175" data-name="Path 175" d="M520.067,160.418H482.041A6.045,6.045,0,0,1,476,154.373V116.347a6.045,6.045,0,0,1,6.045-6.045h38.027a6.045,6.045,0,0,1,6.044,6.046v38.026a6.045,6.045,0,0,1-6.044,6.045" transform="translate(-141.656 -32.826)" fill="#fff"/>
      <path id="Path_176" data-name="Path 176" d="M519.621,161.026H481.6a7.107,7.107,0,0,1-7.1-7.1V115.9a7.107,7.107,0,0,1,7.1-7.1h38.026a7.107,7.107,0,0,1,7.1,7.1v38.027a7.107,7.107,0,0,1-7.1,7.1M481.6,110.909A5,5,0,0,0,476.6,115.9v38.027a5,5,0,0,0,4.992,4.991h38.026a5,5,0,0,0,4.991-4.991V115.9a5,5,0,0,0-4.991-4.991Z" transform="translate(-141.21 -32.379)" fill="#012258"/>
      <path id="Path_177" data-name="Path 177" d="M701.276,159.787H663.251a6.045,6.045,0,0,1-6.046-6.045V115.716a6.045,6.045,0,0,1,6.046-6.045h38.026a6.045,6.045,0,0,1,6.045,6.045v38.027a6.045,6.045,0,0,1-6.045,6.045" transform="translate(-195.584 -32.638)" fill="#fff"/>
      <path id="Path_178" data-name="Path 178" d="M700.831,160.395H662.805a7.107,7.107,0,0,1-7.1-7.1V115.269a7.107,7.107,0,0,1,7.1-7.1h38.027a7.107,7.107,0,0,1,7.1,7.1V153.3a7.107,7.107,0,0,1-7.1,7.1M662.8,110.278a5,5,0,0,0-4.991,4.991V153.3a5,5,0,0,0,4.992,4.992h38.026a5,5,0,0,0,4.991-4.992V115.269a5,5,0,0,0-4.991-4.991Z" transform="translate(-195.138 -32.192)" fill="#012258"/>
      <path id="Path_179" data-name="Path 179" d="M609.21,159.951H570.974a5.35,5.35,0,0,1-5.35-5.35V116.365a5.35,5.35,0,0,1,5.35-5.35H609.21a5.35,5.35,0,0,1,5.35,5.35V154.6a5.35,5.35,0,0,1-5.35,5.35" transform="translate(-168.329 -33.038)" fill="#fff"/>
      <path id="Path_180" data-name="Path 180" d="M608.763,160.558H570.527a6.411,6.411,0,0,1-6.4-6.4V115.919a6.412,6.412,0,0,1,6.4-6.4h38.237a6.412,6.412,0,0,1,6.4,6.4v38.236a6.411,6.411,0,0,1-6.4,6.4m-38.237-48.937a4.3,4.3,0,0,0-4.3,4.3v38.236a4.3,4.3,0,0,0,4.3,4.3h38.237a4.3,4.3,0,0,0,4.3-4.3V115.919a4.3,4.3,0,0,0-4.3-4.3Z" transform="translate(-167.882 -32.591)" fill="#012258"/>
      <path id="Path_181" data-name="Path 181" d="M637.587,227.144H501.255a5.6,5.6,0,0,1-5.6-5.6v-4.336a5.6,5.6,0,0,1,5.6-5.6H637.587a5.6,5.6,0,0,1,5.6,5.6v4.336a5.6,5.6,0,0,1-5.6,5.6" transform="translate(-147.507 -62.976)" fill="#012258"/>
      <path id="Path_182" data-name="Path 182" d="M579.057,140.088l2.888.411a12.051,12.051,0,0,0,.832,3.707l-2.817,2.035a1.6,1.6,0,0,0-.316,2.28l1.507,1.97a1.709,1.709,0,0,0,2.339.364l2.647-1.915a12.133,12.133,0,0,0,3.421,2.086l-.425,2.984a1.661,1.661,0,0,0,1.412,1.881l2.534.36a1.663,1.663,0,0,0,1.883-1.411l.428-3a12.065,12.065,0,0,0,3.939-1.112l1.947,2.512a1.705,1.705,0,0,0,2.342.3l2-1.464a1.6,1.6,0,0,0,.344-2.272l-2.132-2.752a12.064,12.064,0,0,0,1.73-3.192l2.963.422a1.665,1.665,0,0,0,1.882-1.414l.339-2.376a1.664,1.664,0,0,0-1.413-1.882l-3.15-.449a12.062,12.062,0,0,0-.832-3.112l2.8-2.023a1.6,1.6,0,0,0,.316-2.281l-1.507-1.97a1.705,1.705,0,0,0-2.338-.362l-2.711,1.96a12.057,12.057,0,0,0-3.187-1.924l.313-2.2a1.664,1.664,0,0,0-1.413-1.882l-2.534-.361a1.664,1.664,0,0,0-1.881,1.414l-.31,2.178a12.1,12.1,0,0,0-3.461.871l-2.028-2.62a1.7,1.7,0,0,0-2.343-.3l-2,1.464a1.6,1.6,0,0,0-.344,2.272l2.038,2.63a12.149,12.149,0,0,0-1.817,2.938l-3.073-.438a1.662,1.662,0,0,0-1.88,1.413l-.339,2.376a1.662,1.662,0,0,0,1.411,1.882m16-7.1a6.8,6.8,0,1,1-7.692,5.774,6.8,6.8,0,0,1,7.692-5.774" transform="translate(-171.902 -36.901)" fill="#012258"/>
      <path id="Path_183" data-name="Path 183" d="M695.731,160.957H680.766a3.449,3.449,0,0,1-3.437-3.742q.065-.754.129-1.509c.547-6.406,5.21-11.289,10.785-11.289a10.049,10.049,0,0,1,7.245,3.208,13.24,13.24,0,0,1,3.53,7.981q.074.792.147,1.585a3.449,3.449,0,0,1-3.435,3.766" transform="translate(-201.569 -42.978)" fill="#3685e3"/>
      <path id="Path_184" data-name="Path 184" d="M696.855,129.46a6.733,6.733,0,1,1-6.733-6.733,6.733,6.733,0,0,1,6.733,6.733" transform="translate(-203.376 -36.523)" fill="#3685e3"/>
      <path id="Path_185" data-name="Path 185" d="M505.809,157.174H485.727a2.36,2.36,0,0,1-1.784-3.905l9.322-10.76a2.36,2.36,0,0,1,3.452-.124l10.761,10.76a2.36,2.36,0,0,1-1.669,4.029" transform="translate(-143.848 -42.168)" fill="#3685e3"/>
      <path id="Path_186" data-name="Path 186" d="M526.931,154.859H506.849c-2.022,0-3.108-3.216-1.784-5.283l9.322-14.559a1.977,1.977,0,0,1,3.452-.167L528.6,149.408c1.486,2.012.433,5.451-1.669,5.451" transform="translate(-150.134 -39.853)" fill="#3685e3"/>
      <path id="Path_187" data-name="Path 187" d="M511.117,132.434a3.491,3.491,0,1,1-3.491-3.491,3.491,3.491,0,0,1,3.491,3.491" transform="translate(-150.03 -38.373)" fill="#3685e3"/>
      <path id="Path_188" data-name="Path 188" d="M192.406,476.754c7.065,3.962,4.571,10.943-1.91,10.951l-38.7-.095.753-20.912s14.559-.126,15.494-.019c0,0,19.786,7.509,24.36,10.075" transform="translate(-45.175 -138.871)" fill="#fff"/>
      <path id="Path_189" data-name="Path 189" d="M190.051,488.313l-38.7-.1a1.053,1.053,0,0,1-1.05-1.091l.754-20.911A1.053,1.053,0,0,1,152.1,465.2c2.442-.022,14.672-.122,15.623-.013a1.052,1.052,0,0,1,.254.062c.811.308,19.912,7.567,24.5,10.14h0c4.342,2.436,5.23,5.836,4.613,8.206-.735,2.818-3.563,4.715-7.037,4.719m-37.607-2.2,37.609.093c2.536,0,4.5-1.237,5-3.143.535-2.053-.846-4.289-3.6-5.836-4.252-2.385-22.28-9.271-24.076-9.954-1.186-.058-8.878-.019-14.247.025Z" transform="translate(-44.729 -138.424)" fill="#012258"/>
      <path id="Path_190" data-name="Path 190" d="M80.845,457.231a1.054,1.054,0,0,1-1.054-1.054V362.165a1.054,1.054,0,0,1,2.107,0v94.013a1.054,1.054,0,0,1-1.054,1.054" transform="translate(-23.746 -107.466)" fill="#012258"/>
      <path id="Path_191" data-name="Path 191" d="M146.512,457.231a1.054,1.054,0,0,1-1.054-1.054V362.165a1.054,1.054,0,0,1,2.107,0v94.013a1.054,1.054,0,0,1-1.054,1.054" transform="translate(-43.288 -107.466)" fill="#012258"/>
      <path id="Path_192" data-name="Path 192" d="M183.4,326.851c1.324-6.333,1.757-11.481,1.285-15.3a17.913,17.913,0,0,0-1.068-4.359c-4.632-11.651-21.585-14.4-49.674-18.96l-13.1-2.129c-9.09-1.481-20.811-3.4-34.84-5.708l-3.48,4.945q-1.791,2.544-3.582,5.09c-5.125,14.375-4.852,19.243-4.195,22.678a28.446,28.446,0,0,0,1.787,5.824l71.534,1.342-20.837,93.1s24.571-1.455,26.238-1.382c9.935-20.12,24.8-60.646,29.921-85.085Z" transform="translate(-22.139 -83.445)" fill="#3685e3"/>
      <path id="Path_193" data-name="Path 193" d="M206.343,478.284c7.148,3.911,4.814,9.935-1.667,9.928l-38.7-.181.3-19.723s14.557-.091,15.495.016c0,0,19.944,7.429,24.571,9.961" transform="translate(-49.393 -139.357)" fill="#fff"/>
      <path id="Path_194" data-name="Path 194" d="M204.241,488.818h-.012l-38.707-.182a1.053,1.053,0,0,1-1.049-1.07l.3-19.723a1.053,1.053,0,0,1,1.047-1.037c2.442-.015,14.67-.085,15.623.024a1.038,1.038,0,0,1,.247.06c.817.3,20.068,7.484,24.709,10.023,3.7,2.026,5.493,4.881,4.787,7.636-.664,2.594-3.392,4.269-6.949,4.269M166.6,486.534l37.638.177h.01c2.56,0,4.486-1.053,4.9-2.685.445-1.736-.995-3.754-3.758-5.266-4.307-2.357-22.511-9.179-24.293-9.845-1.175-.059-8.856-.039-14.229-.009Z" transform="translate(-48.947 -138.91)" fill="#012258"/>
      <path id="Path_195" data-name="Path 195" d="M70.993,306.754a30.02,30.02,0,0,0,1.942,6.115,31.981,31.981,0,0,0,3.617,6.116l72.623.178c.808,0,1.62,0,2.427.007-5.066,25.7-11.864,62.084-16.93,87.779l32.768-.223c7.858-38.541,12.026-67.483,15.088-86.2,0-.007,0-.014,0-.022.2-1.238.393-2.424.575-3.558.652-4.1,1.6-11.578-2.595-17.79-3.87-5.729-10.433-7.839-26.87-10.934-9.558-1.8-22.252-3.891-37.432-5.559.668-1.093,1.405-2.209,2.22-3.336A53.18,53.18,0,0,1,128.81,268.58a85.924,85.924,0,0,0-20.236-6.831c-4.691-.922-16.6-2.822-21.607-3.572-.223-.034-.441-.071-.664-.1-1.249,2.576-2.39,5.022-3.428,7.316v0c-1.982,4.384-3.587,8.22-4.84,11.341-.563,1.4-1.082,2.728-1.568,3.992,0,0-.628,1.645-1.163,3.117-3.28,9.012-5.7,15.675-4.311,22.912" transform="translate(-21.008 -76.802)" fill="#3685e3"/>
      <path id="Path_196" data-name="Path 196" d="M135.338,406.346l-2.068-.407c2.532-12.845,5.548-28.624,8.463-43.884,2.824-14.769,5.738-30.027,8.22-42.642l-1.152,0-73.147-.18-.315-.421a33.05,33.05,0,0,1-3.736-6.317,31.166,31.166,0,0,1-2.014-6.345c-1.449-7.522.985-14.212,4.354-23.469.539-1.482,1.17-3.135,1.17-3.135.488-1.271,1.009-2.607,1.575-4.01,1.49-3.711,3.092-7.469,4.764-11.174l.093-.211c1.1-2.438,2.26-4.908,3.44-7.342l.338-.7,1.431.218c5.075.761,16.985,2.663,21.652,3.581a88.009,88.009,0,0,1,20.483,6.911l1.545.73-1.346,1.053a52.232,52.232,0,0,0-10.176,10.536c-.439.608-.867,1.229-1.28,1.859,12.026,1.362,24.073,3.173,35.834,5.383,16.121,3.035,22.792,4.292,27.551,11.382,4.169,5.976,4.746,13.838,3.893,19.2a5.16,5.16,0,0,0-.029,1.185,7.514,7.514,0,0,1-.067,1.79l-2.078-.343a5.532,5.532,0,0,0,.041-1.33,7.147,7.147,0,0,1,.053-1.634c.273-1.71,1.382-10.606-3.551-17.677-4.083-6.083-9.546-7.365-26.2-10.5-12.255-2.3-24.823-4.17-37.354-5.546l-1.649-.181.866-1.416c.706-1.156,1.468-2.3,2.265-3.4a54.074,54.074,0,0,1,9.253-9.887A84.731,84.731,0,0,0,108,261.975c-4.608-.905-16.345-2.779-21.459-3.549-1.023,2.125-2.026,4.271-2.989,6.4l-.088.2c-1.693,3.744-3.315,7.545-4.822,11.3-.562,1.393-1.079,2.718-1.562,3.978,0,0-.625,1.635-1.158,3.1-3.254,8.942-5.6,15.4-4.266,22.352a28.917,28.917,0,0,0,1.87,5.885,30.793,30.793,0,0,0,3.188,5.493l75.8.19-.246,1.251c-2.533,12.845-5.548,28.624-8.465,43.884s-5.932,31.045-8.465,43.9" transform="translate(-20.583 -76.218)" fill="#fff"/>
      <path id="Path_197" data-name="Path 197" d="M61.077,356.6h72.354a3.642,3.642,0,0,0,3.642-3.642v-4.575a3.642,3.642,0,0,0-3.642-3.643H61.077a3.643,3.643,0,0,0-3.643,3.643v4.575a3.643,3.643,0,0,0,3.643,3.643" transform="translate(-17.092 -102.594)" fill="#012258"/>
      <path id="Path_198" data-name="Path 198" d="M56.294,352.676v-4.6c0-2.384,2.24-4.323,4.994-4.323h71.253c2.753,0,4.994,1.939,4.994,4.323v4.6c0,2.383-2.241,4.323-4.994,4.323H61.288c-2.754,0-4.994-1.939-4.994-4.323m4.994-7.537a3.192,3.192,0,0,0-3.392,2.936v4.6a3.193,3.193,0,0,0,3.392,2.936h71.253a3.193,3.193,0,0,0,3.392-2.936v-4.6a3.192,3.192,0,0,0-3.392-2.936Z" transform="translate(-16.753 -102.3)" fill="#012258"/>
      <path id="Path_199" data-name="Path 199" d="M68.38,322.111V249.757a3.642,3.642,0,0,0-3.643-3.642H60.163a3.642,3.642,0,0,0-3.643,3.642v72.354a3.643,3.643,0,0,0,3.643,3.643h4.575a3.643,3.643,0,0,0,3.643-3.643" transform="translate(-16.82 -73.244)" fill="#012258"/>
      <path id="Path_200" data-name="Path 200" d="M64.456,326.215h-4.6c-2.384,0-4.323-2.24-4.323-4.994V249.968c0-2.753,1.939-4.994,4.323-4.994h4.6c2.384,0,4.323,2.241,4.323,4.994v71.253c0,2.754-1.939,4.994-4.323,4.994m-7.537-4.994a3.192,3.192,0,0,0,2.936,3.392h4.6a3.193,3.193,0,0,0,2.937-3.392V249.968a3.193,3.193,0,0,0-2.937-3.392h-4.6a3.192,3.192,0,0,0-2.936,3.392Z" transform="translate(-16.527 -72.904)" fill="#012258"/>
      <path id="Path_201" data-name="Path 201" d="M132.213,256.081c6.188-8.133,14.136-29.718,21.058-43.328a122.34,122.34,0,0,0,8.153-20.384c-4.546-6.737-14.444-19.294-25.758-18.346-3.99.334-9.754,2.482-28.538,30.391-7.874,11.7-24.709,38.671-28.63,45.505Z" transform="translate(-23.361 -51.774)" fill="#012258"/>
      <path id="Path_202" data-name="Path 202" d="M245.367,233.645V240.5h65.971L342.33,181.19l-6.189-2.4H335.8l-28.538,54.852Z" transform="translate(-73.021 -53.209)" fill="#012258"/>
      <path id="Path_203" data-name="Path 203" d="M244.851,233.128h62.037l28.436-54.657.1-.2h.629l6.631,2.569L311.4,240.71H244.851Zm96.815-51.9L335.919,179h-.053L307.43,233.658l-.1.2H245.577v6.131h65.388Z" transform="translate(-72.867 -53.055)" fill="#252362"/>
      <path id="Path_204" data-name="Path 204" d="M158.712,203.812c.044.171.093.337.141.5L178.4,228.473l8.168,10.094a12.162,12.162,0,0,0,9.455,4.512h49.923c.115,0,31.447,2.368,26.742-7.339-.079-.162-2-3.938-5.183-4.684-5.122-1.2-7.653-1.916-9.869-1.842a24.771,24.771,0,0,0-6.542,1.513,11.379,11.379,0,0,1-5,.56c-13.968-1.536-28.012-2.554-41.875-4.839-4.015-.662-9.3-8.562-11.1-11.139q-8.614-12.347-17.233-24.691a2.089,2.089,0,0,0-.263-.31c-4.54-4.379-10.636-5-14.845-3.027a1.859,1.859,0,0,0-.781.691c-2.733,4.342-2.558,11.1-1.28,15.84" transform="translate(-46.967 -55.417)" fill="#fff"/>
      <path id="Path_205" data-name="Path 205" d="M253.445,243.956c-3.324,0-6.235-.154-7.936-.268l-49.934,0a13.156,13.156,0,0,1-10.274-4.9l-27.715-34.255a1.048,1.048,0,0,1-.191-.363c-.051-.172-.1-.349-.15-.53-1.256-4.665-1.641-11.829,1.407-16.671a2.892,2.892,0,0,1,1.225-1.083A14.487,14.487,0,0,1,175.9,189.1a3.178,3.178,0,0,1,.4.466l17.545,25.141c1.665,2.4,6.73,9.7,10.095,10.252,9.8,1.616,19.877,2.614,29.621,3.579,4,.4,8.134.806,12.2,1.253a10.262,10.262,0,0,0,4.542-.508,24.539,24.539,0,0,1,6.855-1.571c2.008-.068,4.106.433,7.914,1.34.685.164,1.425.34,2.23.529,3.735.874,5.8,5.072,5.891,5.25a4.348,4.348,0,0,1-.107,4.57c-2.542,3.771-12.138,4.552-19.636,4.552m-94.088-40.59,27.582,34.091a11.062,11.062,0,0,0,8.636,4.121H245.5c.006,0,.058,0,.152.008,11.153.749,23.42,0,25.684-3.36a2.259,2.259,0,0,0-.042-2.473c-.017-.034-1.776-3.485-4.476-4.117-.807-.19-1.55-.367-2.238-.53-3.63-.866-5.634-1.339-7.356-1.285a22.948,22.948,0,0,0-6.23,1.454,12.364,12.364,0,0,1-5.467.613c-4.052-.446-8.182-.855-12.175-1.25-9.777-.969-19.886-1.97-29.756-3.6-3.74-.616-7.9-5.972-11.483-11.13l-17.542-25.136a1.022,1.022,0,0,0-.131-.155c-4.453-4.3-10.072-4.517-13.666-2.831a.8.8,0,0,0-.336.3c-2.514,4-2.392,10.415-1.155,15.005l0,.008c.024.091.048.181.074.268" transform="translate(-46.518 -54.969)" fill="#3685e3"/>
      <path id="Path_206" data-name="Path 206" d="M155.478,203.084c.048.185.1.367.153.545.759,2.562,1.917,4.689,5.105,9.539,3.127,4.762,7.674,11.323,13.74,18.949q1.217-1.089,2.437-2.183,8.014-7.16,16.02-14.332,2.058-1.841,4.116-3.684c-1.739-3.156-17.3-30.861-31.507-30.632a10.472,10.472,0,0,0-6.077,1.755,9.628,9.628,0,0,0-2.268,2.308c-3.313,4.7-3.159,12.388-1.719,17.735" transform="translate(-45.981 -53.95)" fill="#012258"/>
      <path id="Path_207" data-name="Path 207" d="M175.05,242.246c-4.548-5.719-8.813-11.6-12.676-17.482-2.85-4.335-5.406-8.725-5.532-8.994l1.908-.895c.1.186,2.5,4.349,5.385,8.732,3.828,5.829,8.055,11.658,12.564,17.328Z" transform="translate(-46.676 -63.947)" fill="#fff"/>
      <path id="Path_208" data-name="Path 208" d="M169.882,145.539c-.716-.416-10.539,19.381-10.539,19.381l14.37,5.752,6.819-17.83Z" transform="translate(-47.42 -43.31)" fill="#fff"/>
      <path id="Path_209" data-name="Path 209" d="M173.268,171.281a1.052,1.052,0,0,1-.392-.076l-14.37-5.751a1.053,1.053,0,0,1-.553-1.446c9.669-19.487,10.62-19.772,11.131-19.926a1.171,1.171,0,0,1,.882.1c.022.013.044.027.066.042l10.651,7.3a1.054,1.054,0,0,1,.388,1.245l-6.818,17.83a1.054,1.054,0,0,1-.984.678m-12.919-7.359,12.317,4.929,6.14-16.055-9.218-6.321c-1.455,2.2-5.555,10.056-9.239,17.446" transform="translate(-46.974 -42.866)" fill="#3685e3"/>
      <path id="Path_210" data-name="Path 210" d="M188.946,123.93c.73,2.107,1.288,5.989,2.413,12.125.153.837.331,2.048,3.376,5.969,1.315,1.693-3.037,2.944-3.037,2.944.025,4.838-.64,11.082-6.69,11.548-10.879.242-13.771-10.869-14.02-14.592-.212-3.133-.492-7.377,2.251-11.045a9.787,9.787,0,0,1,2.125-2.157c5.441-3.9,12.9-5.168,13.582-4.792" transform="translate(-50.848 -36.863)" fill="#fff"/>
      <path id="Path_211" data-name="Path 211" d="M184.256,157.135c-11.258,0-14.474-11.207-14.767-15.576-.221-3.273-.525-7.757,2.458-11.746a10.938,10.938,0,0,1,2.359-2.385c5.278-3.78,13.3-5.623,14.7-4.856a1.054,1.054,0,0,1,.487.578,60.985,60.985,0,0,1,1.681,7.958c.228,1.295.482,2.733.773,4.323.141.773.341,1.868,3.171,5.513a2,2,0,0,1,.372,1.891c-.409,1.254-2.085,2.058-3.187,2.462-.016,3.7-.483,11.283-7.663,11.836q-.195,0-.386,0m3.451-32.639a28.673,28.673,0,0,0-12.177,4.646,8.771,8.771,0,0,0-1.9,1.933c-2.515,3.363-2.241,7.4-2.043,10.342.01.138,1.232,13.613,12.619,13.613.108,0,.216,0,.326,0,3.931-.3,5.7-3.541,5.66-10.49a1.055,1.055,0,0,1,.761-1.018,6.087,6.087,0,0,0,2.5-1.278c-2.908-3.761-3.347-5.165-3.57-6.386-.3-1.642-.555-3.084-.784-4.384-.544-3.091-.959-5.44-1.393-6.976" transform="translate(-50.401 -36.426)" fill="#3685e3"/>
      <path id="Path_212" data-name="Path 212" d="M189.01,142.533a.7.7,0,0,1-.448-1.244,4.926,4.926,0,0,1,4.972-.761.7.7,0,1,1-.572,1.283,3.518,3.518,0,0,0-3.5.561.7.7,0,0,1-.447.161" transform="translate(-56.04 -41.714)" fill="#012258"/>
      <path id="Path_213" data-name="Path 213" d="M158.971,108.606c-6.225.624-14.033,5.569-22.412,24.507-.013.03-.027.059-.039.089a13.759,13.759,0,0,0,2.519,15.041,30.323,30.323,0,0,0,7.974,6.024l.114.06a11.287,11.287,0,0,0,15.079-4.769c.688-1.3,1.235-2.47,1.67-3.482a120.059,120.059,0,0,0,6.642-20.167c.349-1.644,1.056-5.231,4.016-7.777a10.25,10.25,0,0,1,1.711-1.191,1.3,1.3,0,0,1,1.778.518l.007.013s3.416-11.12-19.06-8.867" transform="translate(-40.272 -32.231)" fill="#3685e3"/>
      <path id="Path_214" data-name="Path 214" d="M189.377,112.974c5.077.969,6.114,2.936,6.393,3.68,1.4,3.763-3.937,10.242-13.918,15.848-2.443-7.645-1.184-12.98-.3-15.536.646-1.87,2.025-5.862,4.479-6.016,1.453-.091,2.692,1.2,3.347,2.024" transform="translate(-53.696 -33.017)" fill="#3685e3"/>
      <path id="Path_215" data-name="Path 215" d="M195.159,159.061a3.931,3.931,0,0,1-3.107-1.65,1.054,1.054,0,0,1,1.728-1.206,1.8,1.8,0,0,0,1.679.719,2.689,2.689,0,0,0,1.41-1.018,1.054,1.054,0,0,1,1.734,1.2,4.763,4.763,0,0,1-2.745,1.889,3.655,3.655,0,0,1-.7.068" transform="translate(-57.099 -46.264)" fill="#3685e3"/>
      <path id="Path_216" data-name="Path 216" d="M370.042,283.709H245.781a8.05,8.05,0,0,1,0-16.1H370.042a8.05,8.05,0,0,1,0,16.1M245.781,269.716a5.943,5.943,0,0,0,0,11.885H370.042a5.943,5.943,0,0,0,0-11.885Z" transform="translate(-70.749 -79.64)" fill="#012258"/>
      <rect id="Rectangle_31" data-name="Rectangle 31" width="2.107" height="143.718" transform="translate(189.853 204.467)" fill="#012258"/>
      <rect id="Rectangle_32" data-name="Rectangle 32" width="2.107" height="143.718" transform="translate(282.365 203.015)" fill="#012258"/>
      <rect id="Rectangle_33" data-name="Rectangle 33" width="92.512" height="2.107" transform="translate(190.907 251.686)" fill="#012258"/>
      <path id="Path_217" data-name="Path 217" d="M709.913,389.315a27.992,27.992,0,1,0-27.993,27.993,27.993,27.993,0,0,0,27.993-27.993" transform="translate(-194.608 -107.529)" fill="#3685e3"/>
      <path id="Path_218" data-name="Path 218" d="M687.232,432.345a27.992,27.992,0,1,0-27.993,27.993,27.993,27.993,0,0,0,27.993-27.993" transform="translate(-187.859 -120.335)" fill="#3685e3"/>
      <path id="Path_219" data-name="Path 219" d="M733.655,432.345a27.992,27.992,0,1,0-27.993,27.993,27.993,27.993,0,0,0,27.993-27.993" transform="translate(-201.674 -120.335)" fill="#3685e3"/>
      <rect id="Rectangle_34" data-name="Rectangle 34" width="2.107" height="53.127" transform="translate(486.259 281.785)" fill="#fff"/>
      <rect id="Rectangle_35" data-name="Rectangle 35" width="2.107" height="14.877" transform="translate(486.259 334.74)" fill="#17266b"/>
      <rect id="Rectangle_36" data-name="Rectangle 36" width="16.59" height="2.107" transform="translate(486.623 298.902) rotate(-41.068)" fill="#fff"/>
      <rect id="Rectangle_37" data-name="Rectangle 37" width="2.107" height="14.808" transform="translate(474.57 312.757) rotate(-55.066)" fill="#fff"/>
    </g>
  </g>
  <text id="SMS" transform="translate(194.56 98.948)" fill="#012258" font-size="13" font-family="SegoeUI, Segoe UI"><tspan x="0" y="0">SMS</tspan></text>
</svg>
