<svg id="Group_25" data-name="Group 25" xmlns="http://www.w3.org/2000/svg" xmlns:xlink="http://www.w3.org/1999/xlink" width="574.783" height="342.845" viewBox="0 0 574.783 342.845">
  <defs>
    <clipPath id="clip-path">
      <rect id="Rectangle_24" data-name="Rectangle 24" width="574.783" height="342.845" fill="none"/>
    </clipPath>
  </defs>
  <rect id="Rectangle_11" data-name="Rectangle 11" width="569.754" height="2.003" transform="translate(0 340.842)" fill="#012258"/>
  <g id="Group_24" data-name="Group 24">
    <g id="Group_23" data-name="Group 23" clip-path="url(#clip-path)">
      <path id="Path_29" data-name="Path 29" d="M598.125,447.145h-11.3L558.93,385.013l-13.77-30.661c-4.935-10.989-16.278-18.123-28.826-18.123H402.574a32.721,32.721,0,0,0-4.638.327,31.181,31.181,0,0,0-24.187,17.8l-41.663,92.792h-11.3L338.9,393.868l26.1-76.78h188.9Z" transform="translate(-106.644 -105.415)" fill="#050e12"/>
      <path id="Path_30" data-name="Path 30" d="M598.125,447.145h-11.3L558.93,385.013l-13.77-30.661c-4.935-10.989-16.278-18.123-28.826-18.123H402.574a32.721,32.721,0,0,0-4.638.327,31.181,31.181,0,0,0-24.187,17.8l-41.663,92.792h-11.3L338.9,393.868l26.1-76.78h188.9Z" transform="translate(-106.644 -105.415)" fill="#012258"/>
      <path id="Path_31" data-name="Path 31" d="M578.108,447.145H566.769l-40-92.154a30.834,30.834,0,0,0-28.336-18.434H386.6a30.834,30.834,0,0,0-28.336,18.434L341.4,393.868l-23.129,53.277h-11.34l42.742-130.056h185.7l22.323,67.925Z" transform="translate(-102.038 -105.415)" fill="#fff"/>
      <path id="Path_32" data-name="Path 32" d="M578.8,447.646h-13.38l-40.261-92.755a29.792,29.792,0,0,0-27.418-17.832H385.916A29.792,29.792,0,0,0,358.5,354.89l-40.261,92.756H304.858l43.4-132.059H535.4Zm-12.065-2h9.3L533.953,317.59H349.707L307.624,445.643h9.3l39.738-91.55a31.794,31.794,0,0,1,29.255-19.037H497.744A31.794,31.794,0,0,1,527,354.093Z" transform="translate(-101.349 -104.916)" fill="#012258"/>
      <path id="Path_33" data-name="Path 33" d="M578.635,447.5H565.714l-40.195-92.6a30.016,30.016,0,0,0-27.607-17.986H386.084A30.015,30.015,0,0,0,358.477,354.9l-40.194,92.6H305.361l43.2-131.462H535.431Zm-11.852-1.406h9.758L534.261,317.44H349.735L307.456,446.09h9.757l39.805-91.706A31.574,31.574,0,0,1,386.084,335.5H497.912a31.573,31.573,0,0,1,29.065,18.881Z" transform="translate(-101.517 -105.065)" fill="#012258"/>
      <rect id="Rectangle_12" data-name="Rectangle 12" width="286.59" height="9.499" transform="translate(204.892 205.096)" fill="#fff"/>
      <path id="Path_34" data-name="Path 34" d="M594.022,317.237H305.43v-11.5H594.022Zm-286.589-2H592.019v-7.5H307.433Z" transform="translate(-101.54 -101.641)" fill="#012258"/>
      <path id="Path_35" data-name="Path 35" d="M593.912,317.087H305.757v-10.9H593.912Zm-286.589-1.406H592.348v-8.093H307.323Z" transform="translate(-101.648 -101.79)" fill="#012258"/>
      <path id="Path_36" data-name="Path 36" d="M424.147,161.88c0-.159-.007-.311-.007-.471a32.061,32.061,0,0,0-7.183,3.074.021.021,0,0,1-.013.007c-2.33,1.365-10.054,13.179-11.349,18.837-1.5,6.579-2.56,52.116-3.212,65.8l-8.627,2.541-17.716,5.318a1.559,1.559,0,0,0,.611,3.043l19.163-1.995q8-.661,16-1.31l.178-.162c.674-3.257,12.372-76.676,12.152-94.683" transform="translate(-124.646 -53.66)" fill="#fff"/>
      <path id="Path_37" data-name="Path 37" d="M375.99,260.54a2.561,2.561,0,0,1-.738-5.011l25.665-7.659c.173-3.822.372-9.706.6-16.452.666-19.586,1.494-43.961,2.6-48.812,1.268-5.542,9.039-17.85,11.818-19.478l.044-.024a33.005,33.005,0,0,1,7.375-3.153,1,1,0,0,1,1.285.96l.007.458c.221,18.058-11.616,92.212-12.173,94.9a1.007,1.007,0,0,1-.306.536l-.178.162a1,1,0,0,1-.593.258q-8,.652-16,1.31l-19.141,1.993c-.089.009-.179.013-.267.013m40.94-95.672c-2,1.226-9.581,12.606-10.857,18.183-1.065,4.665-1.925,29.962-2.553,48.434-.244,7.189-.455,13.4-.636,17.191a1,1,0,0,1-.717.913l-8.627,2.54-17.711,5.317a.559.559,0,0,0-.355.734.561.561,0,0,0,.575.354l19.163-1.995q7.721-.639,15.41-1.262c1.284-7.36,11.884-74.379,12.027-93a30.236,30.236,0,0,0-5.682,2.573h0l-.037.021m-5.434,91.2h0Zm13.153-94.683h0Z" transform="translate(-124.147 -53.162)" fill="#3685e3"/>
      <path id="Path_38" data-name="Path 38" d="M413.134,297.913c-1.188-.176-13.712,3.744-14.362,5.253-.342.794-.159,1.021.643,1.387,1.27.579,19.55-.664,19.434-2.061-.115-1.381-2.543-4.109-5.715-4.579" transform="translate(-132.516 -99.039)" fill="#fff"/>
      <path id="Path_39" data-name="Path 39" d="M401.312,305.21a9.7,9.7,0,0,1-2.808-.239c-.9-.411-1.84-1.087-1.148-2.7.937-2.174,14.119-6.054,15.429-5.847,3.72.552,6.415,3.668,6.566,5.487a1.264,1.264,0,0,1-.589,1.15c-1.6,1.126-12.191,2.145-17.45,2.145m-2.018-2.08c1.806.436,15.075-.579,17.905-1.522a6.866,6.866,0,0,0-4.674-3.194c-1.4.022-11.93,3.377-13.315,4.676l.083.039m13.25-4.716h0Z" transform="translate(-132.02 -98.544)" fill="#3685e3"/>
      <path id="Path_40" data-name="Path 40" d="M398.646,329.114q1.513,5.435,3.031,10.878,5.307,19.08,10.627,38.17,2.155,7.737,4.308,15.489a45.86,45.86,0,0,0,21.694-9.272q-2.207-9-4.411-18.011c-2.171-8.872-3.327-12.27-4.41-18.016a128.182,128.182,0,0,1-2-16.26q10.1-17.983,20.976-36.384,7.865-13.3,15.743-26.127a41.445,41.445,0,0,0-9.5-5.4,40.438,40.438,0,0,0-6.666-2.047A43.708,43.708,0,0,0,432.6,261.6c-.746,1.056-1.492,2.119-2.228,3.2a356.285,356.285,0,0,0-31,54.956,13.727,13.727,0,0,0-.728,9.361" transform="translate(-132.362 -86.82)" fill="#3685e3"/>
      <path id="Path_41" data-name="Path 41" d="M438.326,481.48c-.232,7.652,7.788,9.82,10.866,4.565L467.464,454.6l-18.154-10.331s-7,11.752-7.36,12.562c0,0-3.473,19.694-3.624,24.649" transform="translate(-145.719 -147.696)" fill="#fff"/>
      <path id="Path_42" data-name="Path 42" d="M443.915,489.438a6.646,6.646,0,0,1-1.839-.264c-2.515-.724-5.4-3.312-5.25-8.224.151-4.969,3.495-23.984,3.637-24.792a1.012,1.012,0,0,1,.071-.232c.365-.824,6.241-10.7,7.415-12.669a1,1,0,0,1,1.356-.358l18.155,10.332a1,1,0,0,1,.37,1.373L449.558,486.05a6.524,6.524,0,0,1-5.643,3.388m-1.5-32.791c-.311,1.775-3.443,19.756-3.583,24.365-.114,3.764,1.977,5.713,3.8,6.238a4.494,4.494,0,0,0,5.2-2.21l17.762-30.569-16.423-9.346c-2.579,4.335-6.24,10.531-6.757,11.521m-4.584,24.334h0Z" transform="translate(-145.22 -147.198)" fill="#012258"/>
      <path id="Path_43" data-name="Path 43" d="M400.6,398.933h29.121l5.57-15.061L448.1,351.94l1.475-3.664q6.382-11.58,12.762-23.161c7.008-12.72,9.88-15.56,12.762-23.161a76.468,76.468,0,0,0,4.971-23.832,71.363,71.363,0,0,0-8.011-34.713L458.806,253.6l-4.492,10.364-26.739,61.688-8.185,21.928Z" transform="translate(-133.178 -80.921)" fill="#3685e3"/>
      <path id="Path_44" data-name="Path 44" d="M408.724,405.621a.762.762,0,0,1-.708-1.045l35.425-88.7a.762.762,0,0,1,1.415.566l-35.424,88.7a.762.762,0,0,1-.708.479" transform="translate(-135.626 -104.854)" fill="#fff"/>
      <path id="Path_45" data-name="Path 45" d="M428.338,249.822h-.027a.749.749,0,0,1-.722-.775c.019-.531,1.885-53.208,1.591-63.044a.749.749,0,0,1,1.5-.045c.3,9.885-1.572,62.611-1.591,63.142a.749.749,0,0,1-.748.722" transform="translate(-142.151 -61.58)" fill="#fff"/>
      <path id="Path_46" data-name="Path 46" d="M468.533,87.467s-4.374-12.932,1.056-17.249a7.717,7.717,0,0,1,5.056-1.373c8.16,0,17.281,8.964,15.685,15.787a9.687,9.687,0,0,1-5.588,6.276,11.193,11.193,0,0,1-6.538.463c-.595-.158-.873-.3-1.693-.489a14.2,14.2,0,0,0-4.842-.258l-3.137-3.158" transform="translate(-155.209 -22.887)" fill="#012258"/>
      <path id="Path_47" data-name="Path 47" d="M471.452,90.757l-3.26-3.28-.018-.053c-.181-.535-4.365-13.144,1.135-17.516a7.869,7.869,0,0,1,5.117-1.426h.089c4.519,0,9.8,2.838,13.147,7.057,2.4,3.025,3.409,6.315,2.774,9.027a9.888,9.888,0,0,1-5.732,6.446,11.327,11.327,0,0,1-6.693.473c-.246-.065-.438-.128-.636-.192-.282-.091-.572-.186-1.05-.3a14,14,0,0,0-4.759-.253Zm-2.836-3.541,3.014,3.033a14.436,14.436,0,0,1,4.806.276,11.307,11.307,0,0,1,1.091.307c.19.062.374.122.61.184a11.014,11.014,0,0,0,6.383-.453,9.383,9.383,0,0,0,5.445-6.108c.6-2.568-.377-5.708-2.682-8.616-3.258-4.109-8.388-6.871-12.768-6.872h-.09a7.336,7.336,0,0,0-4.815,1.32c-5.063,4.024-1.287,16.029-.995,16.929" transform="translate(-155.081 -22.767)" fill="#252362"/>
      <path id="Path_48" data-name="Path 48" d="M468.013,92.1s11.172-1.056,14.216,7.213S465.7,96.038,468.013,92.1" transform="translate(-155.527 -30.605)" fill="#3685e3"/>
      <path id="Path_49" data-name="Path 49" d="M470.043,124.008c.9-.227,5.36,24.243,5.36,24.243l-18.343-.485-.81-19.177Z" transform="translate(-151.679 -41.226)" fill="#fff"/>
      <path id="Path_50" data-name="Path 50" d="M476.1,148.749l-20.511-.542-.881-20.866,15-4.946.419.248c.413.266,1.378.888,5.75,24.893Zm-18.589-2.495,16.175.428c-1.723-9.365-3.762-19.376-4.629-22l-12.285,4.08Z" transform="translate(-151.165 -40.69)" fill="#3685e3"/>
      <path id="Path_51" data-name="Path 51" d="M451.158,101.33a45.833,45.833,0,0,0-4.045,9.64c-.279.965-6.735,17.559,1.8,20.744,11.69,3.65,18.278-7.465,19.707-11.413,1.2-3.322,2.83-7.824,1.007-12.646A11.042,11.042,0,0,0,468,104.66c-4.67-5.909-15.982-3.524-16.838-3.33" transform="translate(-147.777 -33.475)" fill="#fff"/>
      <path id="Path_52" data-name="Path 52" d="M452.993,132.942a16.3,16.3,0,0,1-4.879-.78c-5.759-2.149-6.659-9.816-2.585-21.606.064-.185.109-.312.127-.372a46.935,46.935,0,0,1,4.134-9.852l.218-.389.434-.1c1.3-.294,12.811-2.683,17.844,3.686a12.084,12.084,0,0,1,1.778,3.262c1.96,5.18.248,9.9-1,13.342-1.441,3.983-6.831,12.807-16.067,12.807m-1.678-31.233a44.946,44.946,0,0,0-3.738,9.032c-.021.074-.075.234-.156.468-1.708,4.943-4.995,16.693,1.341,19.059,10.683,3.336,16.917-6.676,18.415-10.815,1.143-3.152,2.708-7.466,1.011-11.951a9.991,9.991,0,0,0-1.473-2.726c-3.918-4.959-13.249-3.485-15.4-3.067" transform="translate(-147.281 -32.967)" fill="#3685e3"/>
      <path id="Path_53" data-name="Path 53" d="M452.681,118.569a.666.666,0,0,1-.609-.393c-.111-.24-.462-.758-.825-.811s-.766.353-.981.6a.667.667,0,1,1-1-.88,2.441,2.441,0,0,1,2.184-1.039,2.756,2.756,0,0,1,1.842,1.581.667.667,0,0,1-.334.883.679.679,0,0,1-.274.059" transform="translate(-149.301 -38.572)" fill="#012258"/>
      <path id="Path_54" data-name="Path 54" d="M464.7,120.978a.666.666,0,0,1-.573-.325,2.126,2.126,0,0,0-1.261-.931,1.841,1.841,0,0,0-1.443.6.668.668,0,1,1-.895-.991,3.075,3.075,0,0,1,2.543-.929,3.466,3.466,0,0,1,2.2,1.565.667.667,0,0,1-.573,1.01" transform="translate(-153.027 -39.353)" fill="#012258"/>
      <path id="Path_55" data-name="Path 55" d="M453.019,126.653a1,1,0,0,1-.852-1.526l2.081-3.386a1,1,0,0,1,1.706,1.049l-2.082,3.386a1,1,0,0,1-.853.477" transform="translate(-150.272 -40.314)" fill="#3685e3"/>
      <path id="Path_56" data-name="Path 56" d="M454.582,136.128a4.833,4.833,0,0,1-3.573-1.589,1,1,0,0,1,1.541-1.278,2.8,2.8,0,0,0,2.033.864h.014a4.618,4.618,0,0,0,3.176-1.549,1,1,0,0,1,1.551,1.267,6.6,6.6,0,0,1-4.718,2.284Z" transform="translate(-149.861 -43.954)" fill="#3685e3"/>
      <path id="Path_57" data-name="Path 57" d="M458.49,102.359c3.543,2.964,12.24,24.133,8.031,31.579,1.815-2.261,8.041-9.627,8.393-17.068a23.744,23.744,0,0,0-2.265-10.78c-1.156-2.4-2.22-3.21-3.129-3.658-2.8-1.38-10.407-.395-11.03-.073" transform="translate(-152.424 -33.816)" fill="#012258"/>
      <path id="Path_58" data-name="Path 58" d="M449.635,103.072s8-4.594,13.681-1.645,5.957,21.475,5.957,21.475,11.852-6.71,8.124-18.321c-1.855-5.778-8.5-9.835-14.59-10.545s-9.672.758-11,1.775c-3.4,2.605-2.175,7.261-2.175,7.261" transform="translate(-149.409 -31.2)" fill="#012258"/>
      <path id="Path_59" data-name="Path 59" d="M433.519,160.633a32.014,32.014,0,0,0-6.226,4.569c-3.728,3.509-5.635,7.028-8.8,13.5-2.5,5.119-5.152,10.776-7.866,16.944q.781,2.079,1.74,4.236a77.729,77.729,0,0,0,10.363,16.944s21.573-28.868,10.786-56.189" transform="translate(-136.513 -53.402)" fill="#fff"/>
      <path id="Path_60" data-name="Path 60" d="M422.233,217.324a1,1,0,0,1-.782-.375,78.939,78.939,0,0,1-10.5-17.162c-.627-1.4-1.22-2.848-1.762-4.291a1,1,0,0,1,.02-.756c2.5-5.689,5.156-11.4,7.884-16.98,3.266-6.68,5.22-10.218,9.011-13.785a33.035,33.035,0,0,1,6.42-4.713,1,1,0,0,1,1.423.5c10.866,27.522-10.7,56.863-10.917,57.156a1,1,0,0,1-.784.4Zm-11.021-22.153c.489,1.278,1.017,2.555,1.572,3.8a76.8,76.8,0,0,0,9.4,15.673c3.627-5.37,18.726-29.811,10.318-53.044a30.915,30.915,0,0,0-5.022,3.834c-3.552,3.342-5.427,6.749-8.585,13.206-2.656,5.432-5.24,10.992-7.684,16.533" transform="translate(-136.014 -52.903)" fill="#012258"/>
      <path id="Path_61" data-name="Path 61" d="M528.294,203.95c1,3.276,1.5,4.915,1.21,6.475-1.318,7.171-13.825,9.893-15.734,10.287a221.812,221.812,0,0,0-11.97-20.1c-.2-.286-.625-.9-1.21-1.772a87.333,87.333,0,0,1-8.472-16.062q-2.115-11.591-4.236-23.183c9.955-.041,15.595,3.407,18.155,5.35,4.6,3.5,7.231,7.846,10.287,13.077.28.479.533.927.787,1.4,2.491,4.616,9.622,19.41,11.183,24.533" transform="translate(-162.195 -53.056)" fill="#fff"/>
      <path id="Path_62" data-name="Path 62" d="M513.272,221.215a1,1,0,0,1-.879-.523,229.878,229.878,0,0,0-11.912-20.009c-.2-.289-.632-.907-1.222-1.788a88.651,88.651,0,0,1-8.569-16.246,1,1,0,0,1-.055-.194L486.4,159.274a1,1,0,0,1,.981-1.181h.179c7.374,0,13.8,1.919,18.585,5.553,4.921,3.742,7.653,8.419,10.545,13.37.286.49.545.947.8,1.426,2.553,4.732,9.7,19.6,11.259,24.717l-.958.292.959-.288c1.043,3.425,1.567,5.144,1.236,6.944-1.362,7.4-12.986,10.358-16.516,11.087a1.052,1.052,0,0,1-.2.021M492.586,182a86.646,86.646,0,0,0,8.338,15.784c.579.865,1,1.472,1.2,1.755a226.929,226.929,0,0,1,11.669,19.537c3.352-.77,13.158-3.507,14.229-9.33.243-1.32-.234-2.883-1.182-6v0c-1.525-5-8.581-19.67-11.106-24.349-.248-.46-.5-.9-.77-1.368-3.277-5.608-5.745-9.528-10.029-12.785-4.214-3.2-9.846-4.965-16.344-5.133Z" transform="translate(-161.697 -52.558)" fill="#3685e3"/>
      <path id="Path_63" data-name="Path 63" d="M424.086,248.382c4.786,1.337,17.581.706,23.647.224,22.621-1.8,31.492-4.641,41.308-7.733,0,0-4.217-22.567-4.211-29.617.006-6.487.369-12.963,0-24.811-.424-13.525-1.35-19.994-6.051-23.849-2.971-2.439-1.2-4.843-17.4-4.593l-15.486-.248a16.044,16.044,0,0,0-6.6,1.3l-.085.036a16.1,16.1,0,0,0-9.688,13.537c-.762,9.816-5.446,73.271-5.428,75.758" transform="translate(-140.987 -52.445)" fill="#fff"/>
      <path id="Path_64" data-name="Path 64" d="M433.462,249.689a43.946,43.946,0,0,1-10.144-.841,1,1,0,0,1-.732-.957c-.019-2.539,4.643-65.705,5.431-75.843a17.1,17.1,0,0,1,10.29-14.378l.115-.049a17.085,17.085,0,0,1,6.985-1.364l15.486.248c12.932-.2,14.814,1.232,16.82,3.584a9.182,9.182,0,0,0,1.2,1.236c4.99,4.091,5.979,10.6,6.417,24.591.259,8.295.161,13.9.074,18.838-.037,2.085-.071,4.054-.073,6-.006,6.876,4.151,29.207,4.194,29.432a1,1,0,0,1-.683,1.139l-.264.083c-9.634,3.035-18.735,5.9-41.265,7.693-1.122.089-7.622.583-13.852.583m-8.844-2.588c4.987,1.015,16.336.5,22.537.009,21.849-1.736,30.928-4.492,40.241-7.424-.786-4.28-4.072-22.576-4.067-28.93,0-1.967.037-3.944.073-6.038.087-4.919.184-10.494-.073-18.74-.419-13.35-1.3-19.511-5.686-23.105a11.123,11.123,0,0,1-1.456-1.485c-1.409-1.651-2.637-3.077-15.3-2.881l-15.517-.248a15.177,15.177,0,0,0-6.19,1.213l-.107.045a15.1,15.1,0,0,0-9.063,12.683c-.736,9.47-5,67.206-5.4,74.9" transform="translate(-140.488 -51.947)" fill="#012258"/>
      <path id="Path_65" data-name="Path 65" d="M446.675,241.455c-.936-.035-2.651-.1-3.583,1.061a2.251,2.251,0,0,0,.292,3.094c3.246,2.754,9.714,4.528,11.271,4.764,4.923.744,10.2-.306,10.132-2.887-.108-4.024-6-5.577-18.112-6.031" transform="translate(-147.144 -80.266)" fill="#fff"/>
      <path id="Path_66" data-name="Path 66" d="M457.335,251.072a22.137,22.137,0,0,1-3.278-.245c-1.574-.238-8.24-2.011-11.73-4.972a3.173,3.173,0,0,1-.416-4.378c1.224-1.523,3.326-1.445,4.334-1.406h.005c11.3.423,18.862,1.764,19,6.93a2.868,2.868,0,0,1-1.053,2.261c-1.463,1.294-4.154,1.81-6.863,1.81M445.594,241.9a2.838,2.838,0,0,0-2.242.73,1.329,1.329,0,0,0,.17,1.81c3.1,2.626,9.465,4.35,10.812,4.554,3.585.543,7.3.06,8.64-1.122a1.018,1.018,0,0,0,.43-.826c-.085-3.148-5.238-4.684-17.223-5.133h0c-.174-.007-.371-.014-.582-.014" transform="translate(-146.684 -79.806)" fill="#3685e3"/>
      <path id="Path_67" data-name="Path 67" d="M508.757,232.224c-1.2-1.7-3.734-3.023-5.358-3.872a27.292,27.292,0,0,0-15.042-2.831,74.552,74.552,0,0,0-7.206,3.113,135.279,135.279,0,0,1-20.989,8.248l-7.814,1.627a26.825,26.825,0,0,0-6.041.394c-4.423.8-10.625,2.228-11.494,2.831-1.445,1-3.105,2.039-2.265,4.778.794,2.585,4.059,7.871,7.359,8.053a24.986,24.986,0,0,0,10.786-1.413c2.419-.79,12.857-4.119,12.857-4.119s12.894-2.786,18.178-3.337a67.948,67.948,0,0,0,12.012-2.206,55.748,55.748,0,0,0,9.471-3.627c4.029-1.985,6.2-3.671,6.238-5.645a3.342,3.342,0,0,0-.692-1.993" transform="translate(-143.725 -74.941)" fill="#fff"/>
      <path id="Path_68" data-name="Path 68" d="M440.38,254.545c-.119,0-.226,0-.324-.008-3.837-.212-8.115-5.521-8.972-8.314-.826-2.691.113-4.7,2.792-5.977,3.381-1.609,11.769-3.219,16.458-3.479,12.22-.678,20.935-5.094,27.938-8.642q.979-.5,1.923-.971c1.453-.726,4.648-2.182,6.625-2.917a1,1,0,1,1,.7,1.878c-1.84.684-4.984,2.109-6.427,2.831q-.939.47-1.913.965c-7.17,3.633-16.093,8.154-28.733,8.855-4.39.244-12.667,1.841-15.708,3.288-1.758.836-2.262,1.874-1.738,3.581.688,2.236,4.357,6.748,7.168,6.9,5.279.284,46.913-8.918,52.792-10.595a54.9,54.9,0,0,0,9.3-3.562c4.034-1.987,5.946-3.38,6.6-4.807a1,1,0,1,1,1.82.834c-1.013,2.212-3.634,3.847-7.535,5.769a56.978,56.978,0,0,1-9.641,3.692c-4.638,1.322-46.128,10.675-53.125,10.676" transform="translate(-143.217 -74.526)" fill="#3685e3"/>
      <path id="Path_69" data-name="Path 69" d="M486.921,158.458s19.8-5.331,35.6,29.884c0,0-3.59,12.762-22.573,14.892,0,0-21.363-33.213-13.027-44.775" transform="translate(-161.234 -52.583)" fill="#fff"/>
      <path id="Path_70" data-name="Path 70" d="M500.206,203.8l-.336-.523c-.081-.126-8.167-12.762-12.445-25.075l1.892-.657c3.707,10.671,10.348,21.622,11.9,24.121,16.051-2.035,20.294-11.794,20.992-13.765-8.553-18.99-19.97-28.81-33.938-29.187-.421-.011-.754-.021-.99-.045l.2-1.993c.2.02.488.027.848.036,14.89.4,26.959,10.74,35.87,30.725l.148.33-.1.348c-.155.547-4,13.435-23.426,15.615Z" transform="translate(-161.997 -52.087)" fill="#012258"/>
      <path id="Path_71" data-name="Path 71" d="M377.333,487.067c-6.724,3.66-4.549,11.678,1.541,11.685l36.368-.09L415,477.776s-13.678-.115-14.56-.017c0,0-18.755,6.939-23.109,9.308" transform="translate(-124.069 -158.817)" fill="#fff"/>
      <path id="Path_72" data-name="Path 72" d="M378.382,499.255a6.445,6.445,0,0,1-6.473-4.883c-.644-2.537.136-6.334,4.451-8.682,4.366-2.377,22.472-9.084,23.24-9.369a1.025,1.025,0,0,1,.236-.056c.9-.1,12.386-.008,14.679.011a1,1,0,0,1,.993.989l.24,20.887a1,1,0,0,1-1,1.013Zm21.779-21.007c-1.689.628-18.794,7-22.844,9.2-3.307,1.8-3.935,4.589-3.467,6.43a4.492,4.492,0,0,0,4.53,3.374l35.354-.088-.217-18.894c-5.044-.039-12.24-.073-13.356-.021m-23.323,8.32h0Z" transform="translate(-123.574 -158.318)" fill="#012258"/>
      <path id="Path_73" data-name="Path 73" d="M781.243,184.578a23,23,0,1,0-23,23,23,23,0,0,0,23-23" transform="translate(-244.431 -53.717)" fill="#012258"/>
      <path id="Path_74" data-name="Path 74" d="M805.654,300.851a21.967,21.967,0,0,1-4.135-25.2,30.432,30.432,0,0,0-7.021-36.492,10.482,10.482,0,0,1-.918-14.924,25.833,25.833,0,0,0,6.565-19.856,25.946,25.946,0,0,0-51.771,2.5,25.777,25.777,0,0,0,5.965,16.533c3.983,4.8,3.947,11.929-.641,16.149A30.418,30.418,0,0,0,748.441,278a15.985,15.985,0,0,1-2.844,20.34,43.443,43.443,0,1,0,60.057,2.507" transform="translate(-242.978 -60.151)" fill="#3685e3"/>
      <rect id="Rectangle_13" data-name="Rectangle 13" width="2.003" height="131.381" transform="translate(529.62 183.118)" fill="#fff"/>
      <rect id="Rectangle_14" data-name="Rectangle 14" width="2.003" height="28.677" transform="translate(529.62 314.168)" fill="#012258"/>
      <rect id="Rectangle_15" data-name="Rectangle 15" width="19.621" height="2.003" transform="translate(530.506 215.254) rotate(-41.068)" fill="#fff"/>
      <rect id="Rectangle_16" data-name="Rectangle 16" width="2.003" height="28.544" transform="translate(506.647 270.948) rotate(-55.068)" fill="#fff"/>
      <path id="Path_75" data-name="Path 75" d="M788.5,191.012a22.905,22.905,0,0,0-2.223-9.872c-.723-.093-1.453-.158-2.19-.187a25.957,25.957,0,0,0-26.355,31.709A23.007,23.007,0,0,0,788.5,191.012" transform="translate(-251.692 -60.151)" fill="#fff"/>
      <path id="Path_76" data-name="Path 76" d="M136.878,474.823a.738.738,0,0,1-.669-.459L109.582,413.5a15.237,15.237,0,0,0-13.735-9.435H86.669a15.231,15.231,0,0,0-13.838,9.677l-25.251,60.2a.719.719,0,0,1-.981.4.836.836,0,0,1-.366-1.067l25.252-60.2A16.71,16.71,0,0,1,86.669,402.46h9.178a16.72,16.72,0,0,1,15.071,10.351l26.627,60.861a.837.837,0,0,1-.35,1.073.685.685,0,0,1-.317.078" transform="translate(-15.348 -133.797)" fill="#3685e3"/>
      <path id="Path_77" data-name="Path 77" d="M213.483,474.823a.738.738,0,0,1-.669-.459L186.188,413.5a15.237,15.237,0,0,0-13.735-9.435h-9.178a15.231,15.231,0,0,0-13.838,9.676l-25.251,60.2a.719.719,0,0,1-.981.4.834.834,0,0,1-.366-1.066l25.251-60.2a16.711,16.711,0,0,1,15.185-10.617h9.178a16.72,16.72,0,0,1,15.071,10.351l26.627,60.861a.837.837,0,0,1-.35,1.073.685.685,0,0,1-.317.078" transform="translate(-40.815 -133.797)" fill="#3685e3"/>
      <path id="Path_78" data-name="Path 78" d="M175.282,427.574H81.25a.808.808,0,0,1,0-1.609h94.033a.808.808,0,0,1,0,1.609" transform="translate(-26.765 -141.611)" fill="#3685e3"/>
      <rect id="Rectangle_17" data-name="Rectangle 17" width="1.335" height="25.846" transform="translate(111.016 232.93) rotate(-9.83)" fill="#fff"/>
      <path id="Path_79" data-name="Path 79" d="M82.9,340.347v33.51a16.142,16.142,0,0,0,12.726,6.215h76.7a16.123,16.123,0,0,0,16.123-16.129,23.594,23.594,0,0,0-23.588-23.6Z" transform="translate(-27.559 -113.148)" fill="#fff"/>
      <path id="Path_80" data-name="Path 80" d="M171.454,380.95h-76.7a17.792,17.792,0,0,1-14.1-6.884l-.37-.472V337.741h83.7a25.331,25.331,0,0,1,25.326,25.339,17.866,17.866,0,0,1-17.863,17.87M82.291,372.9a15.8,15.8,0,0,0,12.469,6.045h76.7a15.866,15.866,0,0,0,15.86-15.867,23.327,23.327,0,0,0-23.324-23.336h-81.7Z" transform="translate(-26.692 -112.281)" fill="#17266b"/>
      <path id="Path_81" data-name="Path 81" d="M61.9,300l2.25,9.367,2,8.354,6.571,27.406a16.137,16.137,0,0,0,15.679,12.319h51.971L128.6,289.514c-1.739-10.041-9.057-17.232-17.529-17.232H79.1c-11.927,0-20.518,13.851-17.2,27.717" transform="translate(-20.34 -90.52)" fill="#012258"/>
      <path id="Path_82" data-name="Path 82" d="M141.576,358.318H87.536a17.836,17.836,0,0,1-17.371-13.647L59.339,299.536a26.564,26.564,0,0,1,4.589-22.518,18.111,18.111,0,0,1,14.3-7.346h31.978c9.276,0,17.37,7.854,19.244,18.677ZM78.228,271.675A16.151,16.151,0,0,0,65.5,278.259a24.546,24.546,0,0,0-4.214,20.811L72.112,344.2a15.836,15.836,0,0,0,15.424,12.115H139.2l-11.718-67.625c-1.708-9.86-8.972-17.016-17.272-17.016Z" transform="translate(-19.47 -89.652)" fill="#012258"/>
      <path id="Path_83" data-name="Path 83" d="M213.246,376.619c-.991,7.794-7.941,13.834-16.382,13.834h-37.2l-.383-13.932h53.875Z" transform="translate(-52.953 -125.174)" fill="#fff"/>
      <path id="Path_84" data-name="Path 84" d="M196.351,390.956H158.178l-.438-15.934h55.347l.7.767-.058.459c-1.066,8.385-8.536,14.709-17.375,14.709m-36.225-2h36.225a15.332,15.332,0,0,0,15.219-11.929H159.8Z" transform="translate(-52.44 -124.675)" fill="#17266b"/>
      <path id="Path_85" data-name="Path 85" d="M265.73,489.041c6.633,3.591,4.509,11.5-1.491,11.517l-35.832-.007.189-20.579s13.477-.144,14.345-.049c0,0,18.495,6.794,22.79,9.119" transform="translate(-75.933 -159.538)" fill="#3685e3"/>
      <path id="Path_86" data-name="Path 86" d="M230.385,488.586c6.976,3.74,4.78,12.043-1.515,12.091l-37.6.149.109-21.6s14.141-.21,15.053-.114c0,0,19.436,7.049,23.953,9.47" transform="translate(-63.587 -159.273)" fill="#3685e3"/>
      <path id="Path_87" data-name="Path 87" d="M228.378,501.18l-.015-2a4.678,4.678,0,0,0,4.694-3.544c.474-1.919-.2-4.814-3.644-6.663-4.208-2.256-21.968-8.737-23.689-9.362-1.135-.048-8.621.036-13.847.111l-.1,20.613-2-.01.113-22.576.982-.015c2.371-.035,14.248-.208,15.173-.108l.236.054c.8.289,19.557,7.1,24.085,9.528,4.461,2.391,5.288,6.294,4.642,8.909a6.629,6.629,0,0,1-6.623,5.066" transform="translate(-63.089 -158.775)" fill="#fff"/>
      <path id="Path_88" data-name="Path 88" d="M215.585,429.626s-27.035.238-25.815-.069l-6.093-55.5-42.5-2.916a15.779,15.779,0,0,1-15.653-15.752c0-.466.023-.939.061-1.413a35.907,35.907,0,0,1,1.489-7.506q.756-2.393,1.5-4.78a17.947,17.947,0,0,1,21.3-12.111q9.391,2.245,18.822,4.528c8.529,2.062,30.719,7.512,33.384,8.175.058.015,1.326.36,3.23.891,10.355,2.888,12.115,13.293,12.1,24.1-.032,19.7-.873,62.444-1.816,62.357" transform="translate(-41.731 -109.404)" fill="#fff"/>
      <path id="Path_89" data-name="Path 89" d="M197.565,430.219c-1.674,0-3.106,0-4.285-.013-1.222-.008-2.24-.023-2.955-.043-1.228-.035-1.971-.056-2.085-.955l-.113-.881.057-.015L182.275,374.5l-41.663-2.858a16.8,16.8,0,0,1-16.586-16.752c0-.468.021-.957.064-1.493a37.014,37.014,0,0,1,1.531-7.724q.583-1.845,1.154-3.683l.342-1.1A19.013,19.013,0,0,1,149.6,328.11q9.394,2.245,18.825,4.529c8.663,2.095,30.9,7.555,33.391,8.177.078.019,1.4.38,3.257.9,11.4,3.18,12.845,15.064,12.829,25.063-.017,10.2-.24,25.546-.555,38.184-.6,24.029-1.087,24.47-1.556,24.9l-.327.3-.4-.023c-.449,0-6.67.057-12.894.079-1.695.006-3.235.009-4.611.009m-7.384-2.061c3.193.106,15.462.051,24.162-.023.762-5.272,1.527-41.3,1.559-61.364.016-9.865-1.321-20.328-11.364-23.129-1.858-.519-3.107-.86-3.208-.886-2.49-.62-24.712-6.078-33.373-8.172q-9.425-2.279-18.82-4.527a17,17,0,0,0-20.108,11.435l-.342,1.1q-.575,1.84-1.156,3.688a35.026,35.026,0,0,0-1.447,7.293c-.038.474-.057.909-.057,1.323a14.8,14.8,0,0,0,14.659,14.752l43.4,2.976Zm24.905-.029h0Z" transform="translate(-41.232 -108.908)" fill="#012258"/>
      <path id="Path_90" data-name="Path 90" d="M185.375,433.473s-26.326-.7-25.107-1.008l-6.079-52.326-42.5-2.916A15.779,15.779,0,0,1,96.037,361.47c0-.466.023-.939.061-1.413a35.9,35.9,0,0,1,1.489-7.506q.756-2.394,1.5-4.78a17.946,17.946,0,0,1,21.3-12.111q9.391,2.245,18.822,4.528c8.529,2.062,30.719,7.511,33.384,8.175.058.015,1.326.36,3.23.891,10.355,2.888,12.135,12.81,12.1,24.1-.065,19.471-2.537,60.122-2.537,60.122" transform="translate(-31.927 -111.426)" fill="#fff"/>
      <path id="Path_91" data-name="Path 91" d="M185.817,434l-.968-.026s-6.281-.167-12.567-.374c-13.432-.443-13.432-.443-13.549-1.5l-.1-.868.037-.01-5.884-50.638-41.669-2.859a16.8,16.8,0,0,1-16.586-16.751c0-.469.021-.957.064-1.493a37.006,37.006,0,0,1,1.531-7.724q.583-1.846,1.154-3.684l.342-1.1a19.007,19.007,0,0,1,22.484-12.785q9.393,2.244,18.825,4.528c8.505,2.056,30.531,7.465,33.39,8.176.079.019,1.4.38,3.258.9,11.368,3.171,12.864,14.45,12.829,25.064-.065,19.276-2.515,59.772-2.539,60.179Zm-25.139-2.891c3.059.234,15.065.614,23.256.837.372-6.286,2.419-41.544,2.478-59.1.035-10.356-1.318-20.327-11.364-23.129-1.858-.518-3.106-.859-3.208-.885-2.854-.71-24.871-6.117-33.373-8.172q-9.424-2.28-18.82-4.527A17,17,0,0,0,99.54,347.574l-.342,1.1q-.574,1.84-1.156,3.687a35,35,0,0,0-1.446,7.294c-.038.473-.057.909-.057,1.324A14.8,14.8,0,0,0,111.2,375.726l43.39,2.975Z" transform="translate(-31.429 -110.93)" fill="#012258"/>
      <path id="Path_92" data-name="Path 92" d="M271.31,218.308c-.872-4.144-9.871-1.139-10.854-.943.191-2.978.544-9.972-1.959-10.76-.962-.3-2.054.627-2.854,2.421-.334.749-1.66,6.033-2.8,10.3-.526,1.965-2.331,3.894-3.842,5.256l-8.644,7.79c.286,1.348,10.686,13.314,10.686,13.314l7.218-10.45a3.236,3.236,0,0,1,2.725-1.4c1.766.033,4.5.061,6.312-.037a4.953,4.953,0,0,0,3.1-1.138c.538-.541,3.1-4,.919-14.354" transform="translate(-79.906 -68.667)" fill="#fff"/>
      <path id="Path_93" data-name="Path 93" d="M250.584,246.815l-.847-.974c-3.947-4.542-10.613-12.369-10.91-13.762l-.12-.565,9.074-8.177c1.955-1.762,3.182-3.412,3.545-4.77.336-1.257.689-2.6,1.027-3.893,1-3.8,1.571-5.981,1.828-6.555,1.041-2.334,2.563-3.443,4.069-2.968,2.7.848,2.952,5.76,2.735,10.4,3.236-.838,7.005-1.5,9.2-.158a3.344,3.344,0,0,1,1.562,2.212c2.327,11.051-.581,14.655-1.188,15.266A5.786,5.786,0,0,1,266.8,234.3c-1.813.1-4.473.075-6.385.038a2.227,2.227,0,0,0-1.882.967Zm-9.541-14.71c1.093,1.649,5.259,6.7,9.361,11.447l6.483-9.386a4.181,4.181,0,0,1,3.568-1.831c1.539.029,4.394.064,6.239-.036l.049,0,.05,0a3.858,3.858,0,0,0,2.339-.842c.029-.029,2.845-3.011.65-13.441a1.334,1.334,0,0,0-.648-.917c-1.274-.779-4.081-.586-8.347.574-.324.088-.561.151-.684.176l-1.279.255.083-1.3c.546-8.5-.827-9.6-1.26-9.741-.289-.089-1,.445-1.638,1.873-.2.453-1.008,3.532-1.72,6.247-.339,1.3-.692,2.643-1.029,3.9-.471,1.758-1.863,3.69-4.139,5.741Z" transform="translate(-79.358 -68.166)" fill="#3685e3"/>
      <path id="Path_94" data-name="Path 94" d="M211.748,235.7q-12.974,11.079-25.947,22.157c-1.439-2.032-4.37-6.18-8.115-11.532-6.49-9.273-8.354-10.522-10.661-12.7-2.039-1.927-11.511-8.646-21.314-4.161-.192,10.441,6.7,23.524,8.593,27.5,3.909,8.212,9.343,13.26,16.655,20.055,4.39,4.078,6.584,6.117,8.667,6.69,10.064,2.763,21.36-8.573,29.4-16.641A100.144,100.144,0,0,0,222.4,250.408l-10.656-14.7" transform="translate(-48.44 -75.783)" fill="#3685e3"/>
      <path id="Path_95" data-name="Path 95" d="M163.444,302.336a64.356,64.356,0,0,1-21.47,12.359,66.251,66.251,0,0,1-39.386.668c-1.126-7.117-3.5-22.2-6.565-42.054-3.487-22.612-5.1-34,0-39.329,5.621-5.871,15.981-6.651,27.155-7.491a49.563,49.563,0,0,1,13.7.81c11.162,2.146,9.591,15.189,13.458,31.028,2.66,10.9,6.766,25.939,13.109,44.01" transform="translate(-30.843 -75.245)" fill="#3685e3"/>
      <path id="Path_96" data-name="Path 96" d="M92.752,233.129c-3.1,1.643-11.844,5.4-16.129,12.949-2.156,3.8-4.489,8.256-5.34,23.364-.989,17.559-1.8,31.98,4.673,34.713,2.525,1.065,5.2-.051,6.676-.668,8.611-3.6,10.844-15.428,13.351-28.7,2.232-11.822,3.383-18.563.146-26.535-2.32-5.716-.88-12.878-3.376-15.119" transform="translate(-23.475 -77.503)" fill="#3685e3"/>
      <path id="Path_97" data-name="Path 97" d="M96.062,305.284c15.82,2.042,32.123,2.427,47.943,4.47-.3,5.575-1.088,12.808-1.735,18.383l-62.371.4s-12.822-25.413,16.163-23.258" transform="translate(-25.623 -101.448)" fill="#3685e3"/>
      <path id="Path_98" data-name="Path 98" d="M173.727,312.044a8.3,8.3,0,0,0-3.818,1.527c-3.891,2.915-4.2,9.081-2.291,12.981.33.675,1.825,3.724,4.169,3.848a3.516,3.516,0,0,0,2.111-.664c4.037-2.669,4.8-12.186.593-16.929a8.961,8.961,0,0,0-.764-.764" transform="translate(-55.345 -103.738)" fill="#fff"/>
      <path id="Path_99" data-name="Path 99" d="M196.467,313.14c1.726.793,8.589,3.15,9.058,5.5.362,1.809.469,5.284-1.628,7.467-1.761,1.833-4.932,1.282-7.3,1.112h0s-8.6-1.7-12.447-1.62c-.976.021-2.045.063-3.194.139a28.089,28.089,0,0,1-3.113.119c-.072,0-7.912,1.067-7.2-6.989a.351.351,0,0,1,.009-.064c0-.017,0-.029.009-.047.017-.093.033-.186.055-.276.013-.063.025-.123.043-.182a.829.829,0,0,1,.029-.1c.806-2.689,3.906-4.08,4.148-4.186a.025.025,0,0,0,.017,0l9.567-2.125s0,.009.009.013c17.638-4,20.412-4.924,22.286-3.07.372.369.019,1.673-.924,2.17a16.756,16.756,0,0,1-4.288,1.069c-.861.162-4.483.9-5.131,1.077" transform="translate(-56.714 -102.363)" fill="#fff"/>
      <path id="Path_100" data-name="Path 100" d="M199.359,327.932c-.842,0-1.68-.074-2.456-.142-.288-.025-.569-.051-.84-.07l-.164-.019c-.085-.018-8.543-1.679-12.23-1.6-1.055.023-2.114.069-3.15.138l-.6.041a22.864,22.864,0,0,1-2.541.081c-1.04.1-4.264.218-6.412-1.895-1.437-1.413-2.05-3.479-1.824-6.139l.047-.311c.007-.047.027-.158.053-.264.01-.055.029-.14.053-.225.007-.031.021-.083.041-.139.85-2.79,3.719-4.328,4.523-4.711l.072-.077,10.459-2.322.009.01c1.758-.4,3.365-.767,4.834-1.1,13.33-3.053,15.732-3.6,17.786-1.569a1.719,1.719,0,0,1,.416,1.519,3.147,3.147,0,0,1-1.577,2.25,15.406,15.406,0,0,1-4.18,1.094l-.391.073c-.356.067-1.14.224-1.991.4,3.36,1.443,6.322,3.034,6.715,5,.176.883.916,5.438-1.888,8.356a6.29,6.29,0,0,1-4.76,1.632m-3.133-2.208c.275.02.56.045.852.071,2.053.18,4.382.384,5.6-.882,1.64-1.707,1.762-4.609,1.368-6.577-.284-1.421-5.481-3.539-7.19-4.235-.549-.224-1-.409-1.305-.548l-2.5-1.149,2.652-.727c.7-.191,4.379-.94,5.212-1.1l.391-.073a14.9,14.9,0,0,0,3.615-.9,1.169,1.169,0,0,0,.522-.719c-1.286-1.026-3.953-.459-15.766,2.243-1.634.374-3.437.787-5.431,1.239l-.563.128-.013-.015-8.7,1.932-.085.091-.227,0c-.641.314-2.826,1.509-3.415,3.475l-.022.064c-.013.059-.02.093-.027.128-.025.108-.038.184-.052.259l-.005.031c-.179,2.052.235,3.589,1.23,4.569,1.6,1.578,4.316,1.38,4.842,1.326l.132-.008a21.886,21.886,0,0,0,2.435-.074l.613-.043c1.064-.07,2.154-.118,3.237-.142,3.79-.073,11.742,1.458,12.6,1.627m-25.1-7.188,0,.012,0-.012m-1.955-.435,0,.026,0-.022v0" transform="translate(-56.215 -101.865)" fill="#3685e3"/>
      <path id="Path_101" data-name="Path 101" d="M151.97,342.792l1.7-1.968h6.987l.975,2.073Z" transform="translate(-50.522 -113.306)" fill="#012258"/>
      <path id="Path_102" data-name="Path 102" d="M164.786,342.817l1.7-1.968h6.987l.975,2.073Z" transform="translate(-54.783 -113.315)" fill="#012258"/>
      <path id="Path_103" data-name="Path 103" d="M178.185,342.817l1.7-1.968h6.987l.975,2.073Z" transform="translate(-59.237 -113.315)" fill="#012258"/>
      <path id="Path_104" data-name="Path 104" d="M191.195,342.817l1.7-1.968h6.987l.975,2.073Z" transform="translate(-63.562 -113.315)" fill="#d1e2dc"/>
      <path id="Path_105" data-name="Path 105" d="M267.763,290.1l-14.707,32.846a5.832,5.832,0,0,1-5.323,3.449H190.426a5.832,5.832,0,0,1-5.291-8.286l15.356-33.118a5.832,5.832,0,0,1,5.318-3.378l56.658.271a5.832,5.832,0,0,1,5.3,8.216" transform="translate(-61.366 -93.622)" fill="#012258"/>
      <path id="Path_106" data-name="Path 106" d="M188.189,318.11l15.356-33.118a5.825,5.825,0,0,1,5.117-3.365l-2.853-.013a5.832,5.832,0,0,0-5.318,3.378L185.134,318.11a5.833,5.833,0,0,0,5.292,8.286h3.054a5.832,5.832,0,0,1-5.291-8.286" transform="translate(-61.365 -93.622)" fill="#012258"/>
      <path id="Path_107" data-name="Path 107" d="M235.792,351.81H149.9a3.263,3.263,0,0,1-3.263-3.263v-.293a3.263,3.263,0,0,1,3.263-3.263h85.887a3.263,3.263,0,0,1,3.263,3.263v.293a3.263,3.263,0,0,1-3.263,3.263" transform="translate(-48.751 -114.692)" fill="#012258"/>
      <path id="Path_108" data-name="Path 108" d="M262.32,325.022a.774.774,0,0,1-.317-.067.786.786,0,0,1-.4-1.036l15.336-34.855a4.869,4.869,0,0,0-.026-4.137,5.234,5.234,0,0,0-.758-1.123,4.893,4.893,0,0,0-3.69-1.583H215.409a.786.786,0,0,1,0-1.573h57.053a6.47,6.47,0,0,1,4.868,2.113,6.823,6.823,0,0,1,.961,1.411,6.465,6.465,0,0,1,.086,5.523l-15.338,34.857a.787.787,0,0,1-.72.47" transform="translate(-71.351 -93.301)" fill="#fff"/>
      <path id="Path_109" data-name="Path 109" d="M252.7,345.886H186.327a.628.628,0,1,1,0-1.257H252.7a.628.628,0,0,1,0,1.257" transform="translate(-61.735 -114.571)" fill="#fff"/>
      <path id="Path_110" data-name="Path 110" d="M150.79,351.985h-1.146a2.923,2.923,0,0,1-2.919-2.919v-2.291a2.923,2.923,0,0,1,2.919-2.919.629.629,0,1,1,0,1.257,1.664,1.664,0,0,0-1.662,1.662v2.291a1.664,1.664,0,0,0,1.662,1.662h1.146a.628.628,0,0,1,0,1.257" transform="translate(-48.778 -114.314)" fill="#012258"/>
      <path id="Path_111" data-name="Path 111" d="M235.4,352.205H149.512a4.054,4.054,0,0,1-4.049-4.049v-.293a4.053,4.053,0,0,1,4.049-4.049H235.4a4.053,4.053,0,0,1,4.049,4.049v.293a4.054,4.054,0,0,1-4.049,4.049m-85.887-6.819a2.479,2.479,0,0,0-2.476,2.477v.293a2.479,2.479,0,0,0,2.476,2.477H235.4a2.479,2.479,0,0,0,2.477-2.477v-.293a2.479,2.479,0,0,0-2.477-2.477Z" transform="translate(-48.359 -114.3)" fill="#fff"/>
      <rect id="Rectangle_18" data-name="Rectangle 18" width="29.412" height="2.003" transform="translate(70.33 203.625) rotate(-81.586)" fill="#fff"/>
      <rect id="Rectangle_19" data-name="Rectangle 19" width="2.002" height="40.575" transform="translate(108.668 170.504) rotate(-25.519)" fill="#fff"/>
      <rect id="Rectangle_20" data-name="Rectangle 20" width="2.002" height="48.151" transform="translate(70.347 204.833) rotate(-84.674)" fill="#fff"/>
      <path id="Path_112" data-name="Path 112" d="M67.608,340.442l6.6,27.406a16.038,16.038,0,0,0,2.965,6.1,16.24,16.24,0,0,0,12.782,6.215h40.464V364.038a23.643,23.643,0,0,0-23.691-23.6Z" transform="translate(-22.476 -113.179)" fill="#012258"/>
      <path id="Path_113" data-name="Path 113" d="M131.675,380.948H89.469a17.88,17.88,0,0,1-14.152-6.882,17.7,17.7,0,0,1-3.287-6.765l-7.117-29.562h41.329a25.414,25.414,0,0,1,25.433,25.337ZM67.454,339.742l6.522,27.087a15.694,15.694,0,0,0,2.916,6,15.891,15.891,0,0,0,12.577,6.115h40.2V363.076a23.409,23.409,0,0,0-23.43-23.334Z" transform="translate(-21.58 -112.281)" fill="#012258"/>
      <path id="Path_114" data-name="Path 114" d="M109.206,199.139c-1-.083-.473,23.612-.473,23.612h17.944L124.592,201.6Z" transform="translate(-36.103 -66.203)" fill="#fff"/>
      <path id="Path_115" data-name="Path 115" d="M127.275,223.249h-20.03l-.021-.979c-.511-23.173.357-23.99.728-24.338l.325-.306.579.021L125,200.228Zm-18.069-2h15.858l-1.9-19.284-13.789-2.2c-.345,2.684-.352,12.456-.168,21.488" transform="translate(-35.594 -65.7)" fill="#3685e3"/>
      <path id="Path_116" data-name="Path 116" d="M129.614,174.368a49.144,49.144,0,0,1,3.679,10.587c.234,1.05,6.025,19.24-3.316,22.075-12.754,3.119-19.055-9.218-20.318-13.538-1.066-3.635-2.5-8.563-.226-13.6a11.812,11.812,0,0,1,1.942-3.095c5.394-6.008,17.337-2.7,18.24-2.431" transform="translate(-35.978 -57.587)" fill="#fff"/>
      <path id="Path_117" data-name="Path 117" d="M125.473,208.018c-10.515,0-15.967-10.269-17.278-14.754-1.1-3.758-2.611-8.906-.178-14.292a12.886,12.886,0,0,1,2.112-3.354c5.784-6.443,17.9-3.119,19.264-2.72l.427.125.193.4a50.259,50.259,0,0,1,3.754,10.8c.015.065.055.2.111.409,3.555,12.847,2.093,20.959-4.114,22.843a18.026,18.026,0,0,1-4.292.539M120.892,173.7c-3.347,0-6.988.709-9.275,3.256a10.811,10.811,0,0,0-1.774,2.839c-2.128,4.71-.739,9.446.275,12.9,1.33,4.549,7.356,15.724,19.119,12.847,6.949-2.109,4.214-14.954,2.712-20.378-.069-.253-.116-.426-.134-.507A48.226,48.226,0,0,0,128.4,174.7a31.4,31.4,0,0,0-7.512-1" transform="translate(-35.476 -57.077)" fill="#3685e3"/>
      <path id="Path_118" data-name="Path 118" d="M105.8,175.158a11.908,11.908,0,0,1,2.557.278,30.066,30.066,0,0,1,8.636,2.9c4.421,1.927,12.258,2.492,15.177-1.284,2.5-3.236,1.213-9.431-2.431-12.994a11.531,11.531,0,0,0-12.834-2.238,10.9,10.9,0,0,0-4.43,4.063,17.585,17.585,0,0,0-6.756.383c-3.924,1.017-9.207,4.5-10.346,9.77-.081.378.415-.162,10.426-.879" transform="translate(-31.704 -53.448)" fill="#012258"/>
      <path id="Path_119" data-name="Path 119" d="M113.145,181.607,104.4,198.64s-12.846-1.979-9.331-17.171c3.079-5.412,10.481-5.326,15.39-2.258a10.79,10.79,0,0,1,2.684,2.4" transform="translate(-31.404 -58.879)" fill="#012258"/>
      <path id="Path_120" data-name="Path 120" d="M137.745,194.785a.668.668,0,0,1-.608-.941,2.973,2.973,0,0,1,1.981-1.7,2.628,2.628,0,0,1,2.346,1.123.667.667,0,0,1-1,.88c-.3-.344-.743-.739-1.144-.684-.465.067-.861.715-.963.937a.671.671,0,0,1-.608.389" transform="translate(-45.571 -63.869)" fill="#012258"/>
      <path id="Path_121" data-name="Path 121" d="M124.045,197.445a.667.667,0,0,1-.573-1.01,3.754,3.754,0,0,1,2.38-1.694,3.33,3.33,0,0,1,2.748,1.008.668.668,0,1,1-.895.992,2.08,2.08,0,0,0-1.655-.68,2.414,2.414,0,0,0-1.433,1.058.669.669,0,0,1-.574.325" transform="translate(-41.017 -64.731)" fill="#012258"/>
      <path id="Path_122" data-name="Path 122" d="M135.3,204.4a1,1,0,0,1-.311-1.953l.973-.318-1.631-2.654a1,1,0,0,1,1.706-1.049l2.3,3.735a1,1,0,0,1-.542,1.476l-2.178.712a1,1,0,0,1-.312.05" transform="translate(-44.609 -65.808)" fill="#3685e3"/>
      <rect id="Rectangle_21" data-name="Rectangle 21" width="72.399" height="2.003" transform="translate(124.822 340.842)" fill="#012258"/>
      <path id="Path_123" data-name="Path 123" d="M641.047,53.414c-3.833,4.981-7.272,4.417-9.533,9.533-2.507,5.673.4,9.362-2.254,14.248-2.071,3.818-6.077,5.68-9.185,6.661v.063l-.093-.031-.094.031v-.063c-3.109-.981-7.113-2.844-9.185-6.661-2.651-4.886.253-8.575-2.254-14.248-2.261-5.115-5.7-4.552-9.533-9.533-4.192-5.447-6.093-13.936-3.813-20.972,2.964-9.149,12.957-15.712,24.785-15.969v-.009l.093,0,.094,0v.009c11.827.258,21.821,6.82,24.785,15.969,2.28,7.035.379,15.525-3.813,20.972" transform="translate(-197.517 -5.473)" fill="#3685e3"/>
      <path id="Path_124" data-name="Path 124" d="M619.356,13.621c12.542.34,23.125,7.268,26.368,17.284a25.819,25.819,0,0,1-4.114,22.722h0a20.766,20.766,0,0,1-5.286,4.781,9.274,9.274,0,0,0-4.013,4.36,13.4,13.4,0,0,0-.916,6.51,14.046,14.046,0,0,1-1.408,7.876c-1.845,3.4-5.219,5.919-10.028,7.487a1.912,1.912,0,0,1-.594.184,1.861,1.861,0,0,1-1.329-.208c-4.774-1.569-8.121-4.08-9.957-7.464a14.046,14.046,0,0,1-1.408-7.876,13.386,13.386,0,0,0-.916-6.51,9.273,9.273,0,0,0-4.012-4.36,20.753,20.753,0,0,1-5.286-4.781A25.807,25.807,0,0,1,592.339,30.9C595.6,20.84,606.27,13.892,618.9,13.616v.005a1.3,1.3,0,0,1,.227-.015,1.914,1.914,0,0,1,.232.015m7.278,61.714c1.091-2.01,1.028-3.735.95-5.92a16.965,16.965,0,0,1,1.236-8.19,12.952,12.952,0,0,1,5.353-5.968,17.032,17.032,0,0,0,4.413-3.957A22.163,22.163,0,0,0,642.1,32.079c-2.719-8.389-12.183-14.414-23.013-14.649-.039,0-.072,0-.106,0-10.83.235-20.294,6.26-23.012,14.649a22.158,22.158,0,0,0,3.51,19.222,17.078,17.078,0,0,0,4.414,3.957,12.949,12.949,0,0,1,5.353,5.968,16.967,16.967,0,0,1,1.236,8.19c-.078,2.185-.141,3.91.949,5.921,1.333,2.459,3.89,4.339,7.6,5.6,3.713-1.256,6.269-3.137,7.6-5.6" transform="translate(-196.566 -4.523)" fill="#fff"/>
      <path id="Path_125" data-name="Path 125" d="M627.769,88.673a1.136,1.136,0,0,1-1.1-1.175c0-.083.3-8.317.975-16.726.149-1.846.3-3.512.453-5.013a31.672,31.672,0,0,1-4.283.112,208.48,208.48,0,0,1,.459,20.95A1.136,1.136,0,1,1,622,86.778a206.192,206.192,0,0,0-.471-21.109,16.875,16.875,0,0,1-3.607-.862c-2.794-1.042-4.528-2.977-4.884-5.448a7.733,7.733,0,0,1,3.167-7.1,2.947,2.947,0,0,1,3.255-.441c.893.457,3,1.538,4.132,11.783a29.047,29.047,0,0,0,4.754-.141c1.217-10.535,2.466-11.435,3.121-11.908,1.228-.886,3.211-.948,5.1,1.531,2.037,2.681,3.4,7.85.908,9.848-1.405,1.125-4.037,2.027-7.058,2.531-.175,1.666-.35,3.56-.523,5.714-.662,8.279-.949,16.324-.951,16.405a1.136,1.136,0,0,1-1.118,1.1h-.057m-10.2-34.6a5.513,5.513,0,0,0-2.28,4.962c.236,1.634,1.421,2.894,3.428,3.642a14.059,14.059,0,0,0,2.581.668c-.88-7.655-2.278-9.206-2.872-9.51a.418.418,0,0,0-.212-.053,1.167,1.167,0,0,0-.644.291m15.24-.691c-.213.192-1.137,1.48-2.13,9.725a13.552,13.552,0,0,0,5.374-1.955c1.08-.864.377-4.5-1.3-6.7-.3-.4-.989-1.2-1.589-1.191a.611.611,0,0,0-.357.119" transform="translate(-203.783 -16.951)" fill="#fff"/>
      <path id="Path_126" data-name="Path 126" d="M621.442,100.872c.3,4.044.589,7.342,1.816,10.346a5.5,5.5,0,0,0,1.921,2.545,8.636,8.636,0,0,0,8.127-.113,5.5,5.5,0,0,0,1.849-2.6c1.142-3.037,1.345-6.342,1.527-10.393Z" transform="translate(-206.597 -33.464)" fill="#fff"/>
      <path id="Path_127" data-name="Path 127" d="M628.225,115.083a6.588,6.588,0,0,1-3.784-1.108,6.218,6.218,0,0,1-2.158-2.841c-1.237-3.029-1.553-6.284-1.864-10.551l-.051-.706,16.656-.232-.031.708c-.192,4.273-.417,7.534-1.571,10.6a6.208,6.208,0,0,1-2.077,2.9,6.834,6.834,0,0,1-4.435,1.2c-.212.017-.442.028-.684.028M621.8,101.192c.288,3.8.621,6.754,1.716,9.437a4.844,4.844,0,0,0,1.682,2.249,5.541,5.541,0,0,0,3.64.844l.049,0,.049,0a5.55,5.55,0,0,0,3.614-.945,4.842,4.842,0,0,0,1.619-2.3c1.022-2.713,1.272-5.676,1.453-9.481Z" transform="translate(-206.24 -33.127)" fill="#012e65"/>
      <path id="Path_128" data-name="Path 128" d="M290.792,13.432V37.1A12.374,12.374,0,0,0,303.166,49.47h45.758a18.5,18.5,0,0,1,14.005,6.413l3.9,4.523a2.765,2.765,0,0,0,4.857-1.806V13.432A12.374,12.374,0,0,0,359.317,1.058H303.166a12.374,12.374,0,0,0-12.374,12.374" transform="translate(-96.673 -0.352)" fill="#fff"/>
      <path id="Path_129" data-name="Path 129" d="M360.659,26.814H319.926c-1.054,0-1.909-.522-1.909-1.166s.855-1.167,1.909-1.167h40.733c1.055,0,1.909.523,1.909,1.167s-.854,1.166-1.909,1.166" transform="translate(-105.724 -8.139)" fill="#012258"/>
      <path id="Path_130" data-name="Path 130" d="M360.659,38.463H319.926c-1.054,0-1.909-.522-1.909-1.166s.855-1.167,1.909-1.167h40.733c1.055,0,1.909.523,1.909,1.167s-.854,1.166-1.909,1.166" transform="translate(-105.724 -12.011)" fill="#012258"/>
      <path id="Path_131" data-name="Path 131" d="M360.659,50.111H319.926c-1.054,0-1.909-.522-1.909-1.166s.855-1.167,1.909-1.167h40.733c1.055,0,1.909.523,1.909,1.167s-.854,1.166-1.909,1.166" transform="translate(-105.724 -15.884)" fill="#012258"/>
      <path id="Path_132" data-name="Path 132" d="M368.561,61.722a3.443,3.443,0,0,1-2.613-1.208l-3.9-4.523a17.78,17.78,0,0,0-13.471-6.168H302.815a13.1,13.1,0,0,1-13.08-13.081V13.08A13.1,13.1,0,0,1,302.815,0h56.15a13.1,13.1,0,0,1,13.08,13.08V58.247a3.442,3.442,0,0,1-2.261,3.253,3.521,3.521,0,0,1-1.224.222M302.815,1.412A11.681,11.681,0,0,0,291.147,13.08V36.743a11.681,11.681,0,0,0,11.668,11.668h45.758a19.2,19.2,0,0,1,14.54,6.657l3.9,4.523a2.058,2.058,0,0,0,3.617-1.344V13.08A11.681,11.681,0,0,0,358.965,1.412Z" transform="translate(-96.322)" fill="#012258"/>
      <path id="Path_133" data-name="Path 133" d="M137.282,214.49a.673.673,0,0,1-.312-.077l-4.13-2.189a.668.668,0,0,1,.156-1.239l6.31-1.519a.668.668,0,0,1,.732.987l-2.179,3.708a.668.668,0,0,1-.577.329m-2.258-2.62,2.007,1.063,1.059-1.8Z" transform="translate(-44.044 -69.63)" fill="#012258"/>
      <rect id="Rectangle_22" data-name="Rectangle 22" width="13.539" height="2.002" transform="translate(427.294 146.417) rotate(-45.001)" fill="#012258"/>
      <rect id="Rectangle_23" data-name="Rectangle 23" width="2.002" height="13.539" transform="translate(427.294 138.259) rotate(-45)" fill="#012258"/>
      <path id="Path_134" data-name="Path 134" d="M127.48,44.371A6.179,6.179,0,1,0,121.3,50.55a6.179,6.179,0,0,0,6.179-6.179" transform="translate(-38.272 -12.697)" fill="#3685e3"/>
      <path id="Path_135" data-name="Path 135" d="M717.829,58.693a6.179,6.179,0,1,0-6.18,6.179,6.179,6.179,0,0,0,6.18-6.179" transform="translate(-234.532 -17.458)" fill="#012258"/>
      <path id="Path_136" data-name="Path 136" d="M209.814,116.411a1,1,0,0,1-1-1V101.241a1,1,0,1,1,2,0V115.41a1,1,0,0,1-1,1" transform="translate(-69.419 -33.325)" fill="#012258"/>
      <path id="Path_137" data-name="Path 137" d="M213.371,112.855H199.2a1,1,0,0,1,0-2h14.169a1,1,0,0,1,0,2" transform="translate(-65.891 -36.853)" fill="#012258"/>
    </g>
  </g>
</svg>
