<svg xmlns="http://www.w3.org/2000/svg" fill="none" viewBox="0 0 1925 1440"><path d="M0 1440V917.529C5.84851 916.283 11.6777 915.05 17.4874 913.83C67.3729 903.359 117.005 893.63 165.004 884.91C211.241 876.511 257.268 868.81 301.808 862.025C344.568 855.509 387.204 849.645 428.537 844.596C468.052 839.769 507.513 835.548 545.827 832.045C582.288 828.714 618.789 825.939 654.314 823.796C687.906 821.771 721.662 820.248 754.639 819.273C785.563 818.357 816.785 817.893 847.441 817.893C907.483 817.893 967.159 819.619 1029.88 823.171C1087.44 826.431 1140.77 830.871 1185.34 834.784C1197.58 835.859 1209.72 836.944 1221.46 837.993L1221.72 838.016H1221.73C1262.21 841.634 1300.44 845.053 1337.1 847.56C1378.12 850.367 1411.86 851.674 1443.29 851.674C1470.09 851.674 1494.8 850.715 1518.84 848.742C1531.47 847.704 1544.07 846.364 1556.26 844.756C1568.86 843.097 1581.48 841.094 1593.77 838.809C1646.08 829.07 1696.97 813.455 1749.34 791.074C1762.4 785.502 1775.02 779.246 1787.14 772.343C1798.74 765.715 1809.82 758.468 1820.31 750.647C1830.52 743.022 1840.13 734.863 1849.1 726.217C1857.95 717.667 1866.17 708.675 1873.71 699.29C1881.26 689.892 1888.16 680.146 1894.39 670.098C1900.67 659.938 1906.33 649.516 1911.34 638.872C1916.31 628.34 1920.84 617.229 1924.8 605.849L1925 605.271V859.628C1918.28 867.921 1911.33 875.992 1904.28 883.67C1895.9 892.78 1887.15 901.597 1878.26 909.872C1869.21 918.298 1859.76 926.399 1850.19 933.953C1840.44 941.639 1830.28 948.977 1819.99 955.764C1809.51 962.666 1798.61 969.19 1787.58 975.154C1776.36 981.221 1764.7 986.882 1752.91 991.973C1740.93 997.151 1728.47 1001.89 1715.89 1006.07C1703.11 1010.31 1689.85 1014.09 1676.46 1017.3C1662.86 1020.55 1648.76 1023.31 1634.55 1025.5C1620.11 1027.72 1605.15 1029.41 1590.07 1030.53C1574.78 1031.67 1558.93 1032.25 1542.97 1032.25C1518.72 1032.2 1494.48 1030.98 1470.4 1028.57C1444.06 1025.93 1417.89 1022.16 1392.02 1017.26C1366.15 1012.4 1339.99 1008.1 1314.27 1004.49C1289.04 1000.95 1263.52 997.966 1238.43 995.627C1213.84 993.335 1188.98 991.598 1164.55 990.463C1140.6 989.35 1116.41 988.787 1092.65 988.787C1069.9 988.787 1046.91 989.303 1024.31 990.319C1002.2 991.315 979.854 992.817 957.893 994.785C936.422 996.712 914.725 999.134 893.407 1001.99C872.571 1004.78 851.529 1008.06 830.867 1011.74C810.684 1015.33 790.304 1019.4 770.291 1023.83C750.774 1028.15 731.06 1032.95 711.698 1038.07C692.84 1043.07 673.8 1048.52 655.102 1054.27C636.896 1059.88 618.532 1065.91 600.52 1072.23C474.128 1116.53 352.292 1178.3 238.397 1255.82C215.005 1271.73 191.719 1288.49 169.184 1305.62C148.701 1321.19 128.372 1337.43 108.766 1353.87C75.7526 1381.55 44.1556 1410.33 14.8496 1439.4L14.248 1440L0 1440ZM1906.19 190.679C1899.45 167.342 1891.85 143.271 1883.57 119.134C1870.13 79.9439 1854.71 39.8877 1837.71 0H1924.99V263.659C1919.65 239.984 1913.33 215.445 1906.19 190.679Z" fill="#C400B0"></path></svg>