<svg xmlns="http://www.w3.org/2000/svg" xmlns:xlink="http://www.w3.org/1999/xlink" width="1626.301" height="1554.622" viewBox="0 0 1626.301 1554.622">
  <defs>
    <clipPath id="clip-path">
      <rect id="Rectangle_53" data-name="Rectangle 53" width="35.638" height="31.907" fill="#3685e3"/>
    </clipPath>
  </defs>
  <path id="Path_307" data-name="Path 307" d="M956.506,1310.229S759.681,1584.874,1057,1616.37s444.722,49.134,556.848-10.079,220.471,74.33,35.275,187.716S1249,1657.819,1117.475,1776.369s-82.394,531.271-527.872,419.9-453.339,96.794-453.339,96.794S22.539,2853.024,488.816,2793.409s586.39,61.743,737.558,70.26,240.591-134.135,63.874-149.039" transform="translate(-123.486 -1309.938)" fill="none" stroke="#3685e3" stroke-width="1" stroke-dasharray="10 15" opacity="0.74"/>
  <g id="Group_38" data-name="Group 38" transform="translate(1169.588 1404.243) rotate(150)">
    <g id="Group_37" data-name="Group 37" transform="translate(0 0)" clip-path="url(#clip-path)">
      <path id="Path_306" data-name="Path 306" d="M0,18.572c0,.328.212.448.466.543Q2.853,20,5.238,20.888L34.579,31.812a.775.775,0,0,0,.239.084,1.421,1.421,0,0,0,.64-.05c.239-.13.193-.393.131-.651q-1.541-6.306-3.064-12.617Q30.834,11.6,29.148,4.616c-.164-.678-.426-.792-1.036-.455Q24.974,5.893,21.839,7.63a.388.388,0,0,1-.557-.052q-3.845-3.7-7.718-7.371A.7.7,0,0,0,13,.014a.753.753,0,0,0-.371.5c-.864,4.365-1.708,8.735-2.571,13.1a.626.626,0,0,1-.341.357Q5.094,16.023.462,18.048c-.245.107-.463.226-.462.524M28.255,5.24l5.823,24.039L34,29.315,18.554,10.592l9.7-5.352m-14.929-3.1c.1.194.164.3.218.419,1.169,2.5,2.329,5.014,3.511,7.512a5.626,5.626,0,0,0,.727,1.158q6.129,7.455,12.277,14.895,1.072,1.3,2.142,2.6a.735.735,0,0,1-.33-.144l-5.994-4.2q-7.292-5.106-14.586-10.209a.415.415,0,0,1-.215-.5c.563-2.83,1.108-5.664,1.658-8.5.191-.982.383-1.964.592-3.039M31.333,29.446l-.033.066L1.857,18.553c.188-.091.3-.15.42-.2,2.586-1.136,5.174-2.266,7.754-3.414a.632.632,0,0,1,.717.071q10.145,7.122,20.3,14.229c.1.067.188.14.283.21M18,9.741,14.8,2.868l.062-.036L20.6,8.309,18,9.741" transform="translate(0 0)" fill="#3685e3"/>
    </g>
  </g>
</svg>
